<?xml version="1.0" encoding="UTF-8" standalone="no"?>
<!-- Created with Inkscape (http://www.inkscape.org/) -->

<svg
   xmlns:dc="http://purl.org/dc/elements/1.1/"
   xmlns:cc="http://creativecommons.org/ns#"
   xmlns:rdf="http://www.w3.org/1999/02/22-rdf-syntax-ns#"
   xmlns:svg="http://www.w3.org/2000/svg"
   xmlns="http://www.w3.org/2000/svg"
   xmlns:sodipodi="http://sodipodi.sourceforge.net/DTD/sodipodi-0.dtd"
   xmlns:inkscape="http://www.inkscape.org/namespaces/inkscape"
   width="325.88876"
   height="387.71875"
   id="svg12121"
   version="1.1"
   inkscape:version="0.48.4 r9939"
   sodipodi:docname="UWC_logo.svg">
  <defs
     id="defs12123" />
  <sodipodi:namedview
     id="base"
     pagecolor="#ffffff"
     bordercolor="#666666"
     borderopacity="1.0"
     inkscape:pageopacity="0.0"
     inkscape:pageshadow="2"
     inkscape:zoom="0.35"
     inkscape:cx="162.94435"
     inkscape:cy="193.85937"
     inkscape:document-units="px"
     inkscape:current-layer="layer1"
     showgrid="false"
     fit-margin-top="0"
     fit-margin-left="0"
     fit-margin-right="0"
     fit-margin-bottom="0"
     inkscape:window-width="1855"
     inkscape:window-height="1056"
     inkscape:window-x="65"
     inkscape:window-y="24"
     inkscape:window-maximized="1" />
  <metadata
     id="metadata12126">
    <rdf:RDF>
      <cc:Work
         rdf:about="">
        <dc:format>image/svg+xml</dc:format>
        <dc:type
           rdf:resource="http://purl.org/dc/dcmitype/StillImage" />
        <dc:title></dc:title>
      </cc:Work>
    </rdf:RDF>
  </metadata>
  <g
     inkscape:label="Layer 1"
     inkscape:groupmode="layer"
     id="layer1"
     transform="translate(-212.05565,-338.5028)">
    <g
       transform="matrix(0,-1.25,-1.25,0,1229.2369,1123.3128)"
       id="g12086">
      <path
         inkscape:connector-curvature="0"
         id="path11487"
         style="fill:#151f50;fill-opacity:1;fill-rule:evenodd;stroke:none"
         d="m 362.031,559.052 c 1.347,-0.33 4.777,-1.204 4.777,-2.903 0,-0.566 -0.44,-0.873 -1.004,-0.873 -1.936,0 -3.283,2.195 -3.773,3.776 z m -5.048,16.935 0,-2.501 3.284,-1.015 c 1.274,-0.401 2.695,-0.921 3.822,-1.605 0.686,-0.425 1.862,-1.345 1.862,-2.219 0,-0.495 -0.319,-0.755 -0.808,-0.755 -0.491,0 -1.397,0.283 -1.863,0.425 l -2.45,0.731 c -0.735,0.237 -1.666,0.52 -2.425,0.52 -0.981,0 -1.74,-0.803 -1.74,-1.723 0,-1.817 2.156,-3.21 3.749,-3.847 l 0.147,0.448 c -0.662,0.354 -2.279,1.086 -2.279,1.912 0,0.283 0.367,0.472 0.661,0.472 0.319,0 1.299,-0.307 1.642,-0.425 l 2.475,-0.755 c 0.711,-0.236 1.641,-0.448 2.376,-0.448 1.25,0 2.108,0.802 2.108,2.006 0,1.888 -1.642,3.375 -3.259,4.13 l 9.09,-2.266 -0.319,4.886 -0.735,0.188 c 0,-0.566 0,-1.793 -0.833,-1.793 -0.637,0 -2.548,0.543 -3.16,0.684 l -11.345,2.95 z m 13.918,1.455 0,2.408 -3.847,1.203 0,1.889 -0.981,0.212 0,-1.865 -3.822,0.992 c -1.029,0.259 -2.621,0.708 -3.675,0.708 -1.103,0 -1.911,-0.85 -1.911,-1.912 0,-1.817 2.132,-3.092 3.651,-3.823 l 0.245,0.448 -0.343,0.189 c -0.588,0.33 -2.083,1.133 -2.083,1.935 0,0.449 0.49,0.543 0.858,0.543 0.685,0 2.155,-0.401 2.842,-0.59 l 4.238,-1.086 0,-2.242 0.981,-0.259 0,2.242 3.847,-0.992 z m -4.705,15.564 0,-2.242 0.98,-0.236 0,2.242 c 1.299,-0.26 2.647,-0.496 3.921,-0.944 0.514,-0.189 1.298,-0.472 1.298,-1.133 0,-0.944 -1.691,-0.638 -1.691,-1.983 0,-0.59 0.589,-1.085 1.177,-1.085 1.225,0 1.494,1.416 1.494,2.336 0,3.352 -3.405,4.72 -6.199,5.405 l 0,1.959 -0.98,0.259 0,-1.982 -9.36,2.1 c -1.421,0.331 -2.842,0.685 -4.263,1.015 -0.441,0.118 -1.225,0.236 -1.225,0.85 0,0.401 0.441,0.472 0.759,0.496 0.564,0.047 1.079,0.377 1.079,1.014 0,0.614 -0.564,1.11 -1.177,1.11 -1.151,0 -1.641,-1.086 -1.641,-2.054 0,-2.69 2.499,-3.823 4.802,-4.531 l 11.026,-2.596 z m 0.515,10.544 c 0,-0.849 -0.76,-1.203 -1.544,-1.203 -1.74,0 -7.669,1.203 -7.669,3.375 0,0.897 0.931,1.18 1.69,1.18 1.324,0 3.186,-0.496 4.411,-0.921 1.127,-0.354 3.112,-1.038 3.112,-2.431 z m -6.395,-48.817 c -0.981,0.779 -2.304,1.841 -2.304,3.163 0,1.014 0.883,1.51 1.838,1.51 0.466,0 0.931,-0.071 1.396,-0.142 0.54,-2.053 1.471,-6.23 4.24,-6.23 1.543,0 2.058,1.652 2.058,2.879 0,3.658 -3.578,6.254 -7.228,6.254 -2.254,0 -3.651,-1.251 -3.651,-3.398 0,-2.03 1.519,-3.54 3.185,-4.626 l 0.466,0.59 z m 3.963,67.802 7.786,-4.665 c 1.007,-0.58 1.797,-1.077 1.906,-2.319 l 0.98,0 c -0.028,1.077 -0.082,2.181 -0.109,3.257 0.027,0.939 0.081,1.85 0.109,2.788 l -0.98,0 c 0,-0.966 -0.191,-2.015 -1.362,-2.015 -0.707,0 -1.96,0.69 -2.613,1.049 l -4.383,2.65 4.928,2.76 c 0.49,0.276 1.715,0.994 2.259,0.994 1.035,0 1.116,-1.325 1.171,-2.07 l 0.98,0 c -0.028,1.573 -0.082,3.147 -0.109,4.72 0.027,1.38 0.081,2.788 0.109,4.168 l -0.98,0 c -0.327,-1.435 -0.626,-1.573 -1.852,-2.319 l -8.384,-4.775 -2.396,0 c -2.341,0.055 -3.457,-0.055 -3.43,2.677 l -0.98,0 c 0.027,-1.462 0.082,-2.953 0.109,-4.416 -0.027,-1.739 -0.082,-3.45 -0.109,-5.189 l 0.98,0 c -0.082,2.76 1.089,2.705 3.43,2.705 l 2.94,0 z m 10.672,14.478 0,17.776 -5.173,0.166 0,-1.187 c 2.369,-0.442 4.029,-1.463 3.812,-4.168 -0.137,-1.739 -0.028,-1.656 -1.988,-1.656 l -10.263,0 c -2.423,0 -3.512,-0.028 -3.43,2.788 l -0.98,0 c 0.027,-1.629 0.082,-3.258 0.109,-4.886 -0.027,-1.629 -0.082,-3.257 -0.109,-4.886 l 0.98,0 c -0.082,2.816 1.007,2.761 3.43,2.761 l 10.263,0 c 2.151,0.055 1.988,0.138 1.988,-1.657 0,-2.401 -1.525,-3.753 -3.812,-4.03 l 0,-1.186 5.173,0.165 z m -13.612,28.581 c -2.232,0 -3.512,-0.082 -3.43,2.595 l -0.98,0 c 0.027,-1.518 0.082,-3.036 0.109,-4.554 -0.027,-1.629 -0.082,-3.258 -0.109,-4.858 l 0.98,0 c -0.055,2.622 1.089,2.594 3.321,2.594 l 9.256,0 c 2.233,0 3.512,0.083 3.485,-2.594 l 0.98,0 c -0.028,1.6 -0.082,3.257 -0.109,4.885 0.027,1.518 0.081,3.009 0.109,4.527 l -0.98,0 c 0.054,-2.677 -1.225,-2.595 -3.485,-2.595 l -9.147,0 z m -4.674,-59.99 c 0,-3.305 3.332,-5.877 6.64,-5.877 2.401,0 4.239,1.51 4.239,3.918 0,3.398 -3.234,5.876 -6.665,5.876 -2.45,0 -4.214,-1.51 -4.214,-3.917 z m 1.816,78.409 c -1.253,-1.242 -1.851,-3.037 -1.851,-4.803 0,-3.395 1.905,-6.542 5.58,-6.542 3.648,0 4.928,2.788 6.18,5.741 0.708,1.573 1.28,3.672 3.321,3.672 1.47,0 2.233,-1.381 2.233,-2.733 0,-2.402 -1.825,-3.975 -3.92,-4.472 l 0,-1.187 4.899,0.166 0,1.187 -1.061,0.359 c 1.007,1.104 1.334,2.649 1.334,4.14 0,3.202 -1.797,5.796 -5.146,5.796 -2.994,0 -4.355,-2.014 -5.417,-4.499 -0.817,-1.932 -1.497,-4.582 -4.029,-4.582 -1.688,0 -2.722,1.546 -2.722,3.147 0,3.064 2.286,4.334 4.764,5.106 l 0,1.104 -5.663,0 0,-1.214 1.498,-0.386 z m 7.432,12.571 c 0.354,-2.263 1.878,-4.333 4.301,-4.333 1.905,0 3.376,0.938 4.083,2.732 0.518,1.215 0.599,3.23 0.654,4.555 -0.028,1.49 -0.082,2.981 -0.109,4.472 0.027,1.573 0.081,3.119 0.109,4.692 l -0.98,0 c 0.082,-2.65 -1.198,-2.595 -3.43,-2.595 l -9.202,0 c -2.232,0 -3.512,-0.055 -3.43,2.595 l -0.98,0 c 0.027,-1.573 0.082,-3.119 0.109,-4.692 -0.027,-1.574 -0.082,-3.175 -0.109,-4.748 l 0.98,0 c -0.082,2.65 1.198,2.622 3.43,2.622 l 3.594,0 c 0,-0.138 0.027,-0.303 0.027,-0.442 0.054,-0.772 -1.307,-1.959 -2.559,-2.87 l -5.472,-3.92 c 0.027,-0.911 0.082,-1.822 0.109,-2.732 -0.027,-0.911 -0.082,-1.822 -0.109,-2.733 l 0.98,0 c 0.163,0.773 0.354,1.187 0.953,1.766 0.708,0.663 1.606,1.27 2.396,1.85 l 4.655,3.781 z m -8.984,32.002 c 0.027,-1.574 0.082,-3.119 0.109,-4.693 -0.027,-3.809 -0.082,-7.618 -0.109,-11.427 0.735,0.027 1.443,0.083 2.178,0.11 1.034,-0.027 2.041,-0.083 3.076,-0.11 l 0,1.104 c -3.076,0.69 -4.002,1.905 -4.002,5.024 0,3.257 1.634,3.174 4.193,3.174 l 3.184,0 c 0,-2.539 -0.435,-3.257 -2.939,-3.781 l 0,-1.105 c 1.116,0.028 2.259,0.083 3.375,0.111 1.252,-0.028 2.505,-0.083 3.757,-0.111 l 0,1.105 c -2.531,0.11 -2.94,1.545 -2.94,3.781 l 5.036,0 c 0.218,0 1.416,0 1.552,-0.083 0.3,-0.165 0.3,-1.932 0.3,-2.263 0,-2.65 -0.845,-4.223 -3.54,-4.693 l 0,-1.187 4.792,0.221 c -0.028,3.368 -0.082,6.763 -0.109,10.13 0.027,1.574 0.081,3.119 0.109,4.693 l -0.98,0 c 0.082,-2.65 -1.198,-2.595 -3.43,-2.595 l -9.202,0 c -2.232,0 -3.512,-0.055 -3.43,2.595 l -0.98,0 z m -0.299,12.217 14.401,-6.072 c 1.66,-0.691 2.831,-1.132 2.94,-3.175 l 0.98,0 c -0.028,1.187 -0.082,2.374 -0.109,3.561 0.027,1.104 0.081,2.208 0.109,3.312 l -0.98,0 c -0.082,-1.049 -0.164,-2.291 -1.498,-2.291 -1.116,0 -3.103,0.773 -4.165,1.215 l -6.533,2.622 9.065,3.423 c 0.436,0.138 1.389,0.497 1.824,0.497 1.28,0 1.28,-1.353 1.307,-2.319 l 0.98,0 c -0.028,1.656 -0.082,3.312 -0.109,4.968 0.027,1.519 0.081,3.009 0.109,4.527 l -0.98,0 c -0.381,-2.263 -0.626,-2.236 -2.913,-3.146 l -14.428,-5.797 0,-1.325 z m 9.582,-38.919 4.655,0 c 0.381,0 2.233,0 2.532,-0.083 0.327,-0.083 0.3,-1.021 0.3,-1.325 0,-2.594 -1.307,-3.643 -3.785,-3.643 -2.694,0 -3.702,1.352 -3.702,4.002 l 0,1.049 z m -4.873,58.861 c -2.232,0 -3.512,-0.083 -3.43,2.594 l -0.98,0 c 0.027,-1.518 0.082,-3.036 0.109,-4.554 -0.027,-1.629 -0.082,-3.257 -0.109,-4.858 l 0.98,0 c -0.055,2.622 1.089,2.595 3.321,2.595 l 9.256,0 c 2.233,0 3.512,0.082 3.485,-2.595 l 0.98,0 c -0.028,1.601 -0.082,3.257 -0.109,4.886 0.027,1.518 0.081,3.008 0.109,4.526 l -0.98,0 c 0.054,-2.677 -1.225,-2.594 -3.485,-2.594 l -9.147,0 z m -4.791,10.642 0,-1.353 13.094,0 c 0.899,0 2.559,0 3.349,-0.414 0.735,-0.386 0.844,-1.269 0.98,-2.042 l 0.98,0 c -0.028,1.104 -0.082,2.208 -0.109,3.312 0.027,1.049 0.081,2.098 0.109,3.147 l -0.98,0 c -0.109,-2.623 -2.096,-2.623 -4.166,-2.623 l -7.241,0 12.387,10.904 c -0.028,1.048 -0.082,2.07 -0.109,3.119 0.027,0.883 0.081,1.739 0.109,2.622 l -0.98,0 c -0.136,-1.518 -0.626,-1.877 -1.852,-2.76 l -10.943,0 c -1.933,0 -3.049,0.165 -3.267,2.456 l -0.98,0 c 0.027,-1.049 0.082,-2.098 0.109,-3.146 -0.027,-1.105 -0.082,-2.236 -0.109,-3.34 l 0.98,0 c 0.109,2.65 2.232,2.65 4.301,2.65 l 8.412,0 -14.074,-12.532 z m 17.423,41.088 c 0,-2.678 -1.225,-2.595 -3.485,-2.595 l -6.534,0 c -5.662,0 -7.322,-3.174 -7.322,-8.005 0,-5.051 2.449,-7.646 7.377,-7.646 l 5.091,0 c 1.061,0 2.804,0.111 3.756,-0.386 0.79,-0.414 0.981,-1.27 1.117,-2.098 l 0.98,0 c -0.028,1.104 -0.082,2.236 -0.109,3.34 0.027,1.049 0.081,2.098 0.109,3.147 l -0.98,0 c -0.082,-0.828 -0.354,-1.656 -1.117,-2.125 -0.843,-0.525 -2.776,-0.497 -3.756,-0.497 l -5.663,0 c -3.294,0 -5.036,1.821 -5.036,5.272 0,3.947 2.069,4.775 5.526,4.775 l 6.561,0 c 2.233,0 3.567,0.028 3.485,-2.65 l 0.98,0 c -0.028,1.712 -0.082,3.423 -0.109,5.134 0.027,1.436 0.081,2.898 0.109,4.334 l -0.98,0 z M 318.054,570.813 c 0.027,-1.573 0.081,-3.119 0.109,-4.692 -0.028,-3.809 -0.082,-7.618 -0.109,-11.428 0.735,0.028 1.443,0.083 2.178,0.111 1.034,-0.028 2.041,-0.083 3.076,-0.111 l 0,1.105 c -3.076,0.69 -4.002,1.904 -4.002,5.023 0,3.257 1.633,3.175 4.192,3.175 l 3.185,0 c 0,-2.54 -0.435,-3.258 -2.94,-3.782 l 0,-1.104 c 1.117,0.028 2.26,0.083 3.376,0.11 1.252,-0.027 2.504,-0.082 3.757,-0.11 l 0,1.104 c -2.532,0.11 -2.94,1.546 -2.94,3.782 l 5.036,0 c 0.218,0 1.415,0 1.552,-0.083 0.299,-0.166 0.299,-1.932 0.299,-2.264 0,-2.649 -0.843,-4.223 -3.539,-4.692 l 0,-1.187 4.791,0.221 c -0.027,3.367 -0.081,6.762 -0.108,10.13 0.027,1.573 0.081,3.119 0.108,4.692 l -0.979,0 c 0.081,-2.649 -1.198,-2.594 -3.431,-2.594 l -9.201,0 c -2.232,0 -3.512,-0.055 -3.43,2.594 l -0.98,0 z m 9.501,14.861 5.935,0 c 1.361,0 1.279,0.028 1.333,-1.408 0,-2.318 -1.361,-3.422 -3.593,-3.422 -2.94,0 -3.675,1.518 -3.675,4.251 l 0,0.579 z m -2.586,24.42 6.261,-2.594 -6.261,-2.429 0,5.023 z m -2.505,-20.196 c -2.232,0 -3.512,-0.056 -3.43,2.594 l -0.98,0 c 0.027,-1.601 0.081,-3.064 0.109,-4.554 -0.028,-1.684 -0.082,-3.368 -0.109,-5.052 l 0.98,0 c -0.082,2.816 1.007,2.788 3.43,2.788 l 3.838,0 0,-2.484 c 0,-3.064 1.116,-6.928 4.846,-6.928 4.056,0 4.873,4.03 4.927,7.315 -0.027,1.435 -0.081,2.898 -0.108,4.333 0.054,1.491 0.108,2.981 0.108,4.582 l -0.979,0 c 0.081,-2.65 -1.253,-2.594 -3.485,-2.594 l -9.147,0 z m 1.144,20.721 0,-6.101 -1.552,-0.579 c -0.409,-0.166 -1.362,-0.525 -1.797,-0.525 -1.171,0 -1.117,1.463 -1.225,2.292 l -0.98,0 c 0.027,-1.436 0.081,-2.899 0.109,-4.334 -0.028,-1.656 -0.082,-3.312 -0.109,-4.969 l 0.98,0 c 0.082,0.663 0.217,1.381 0.653,1.877 0.545,0.552 1.906,1.104 2.641,1.408 l 13.993,5.686 0,1.325 -12.959,5.465 c -1.688,0.718 -4.301,1.519 -4.328,3.782 l -0.98,0 c 0.027,-1.049 0.081,-2.098 0.109,-3.147 -0.028,-1.159 -0.082,-2.318 -0.109,-3.478 l 0.98,0 c 0.082,1.022 0.163,2.291 1.497,2.291 0.735,0 1.606,-0.414 2.287,-0.662 l 0.79,-0.331 z m -5.418,10.253 0,-1.104 6.125,0 0,1.104 c -2.859,0.497 -5.254,2.181 -5.199,5.355 0.054,4.389 4.165,5.687 7.894,5.687 3.457,0 7.949,-1.242 7.949,-5.521 0,-2.843 -1.905,-4.637 -4.518,-5.217 l 0,-1.214 5.716,0.248 0,1.187 -1.552,0.414 c 1.225,1.573 1.716,3.23 1.716,5.217 0,5.631 -4.029,9.661 -9.61,9.661 -5.472,0 -8.957,-3.837 -8.957,-9.302 0,-2.153 0.544,-4.389 2.015,-5.99 l -1.579,-0.525 z m -0.517,37.148 0,-1.352 13.094,0 c 0.898,0 2.559,0 3.349,-0.414 0.735,-0.387 0.843,-1.27 0.98,-2.043 l 0.979,0 c -0.027,1.104 -0.081,2.208 -0.108,3.312 0.027,1.049 0.081,2.098 0.108,3.147 l -0.979,0 c -0.11,-2.622 -2.097,-2.622 -4.166,-2.622 l -7.241,0 12.386,10.903 c -0.027,1.049 -0.081,2.07 -0.108,3.119 0.027,0.883 0.081,1.739 0.108,2.622 l -0.979,0 c -0.137,-1.518 -0.627,-1.877 -1.851,-2.76 l -10.945,0 c -1.932,0 -3.049,0.165 -3.266,2.456 l -0.98,0 c 0.027,-1.049 0.081,-2.097 0.109,-3.146 -0.028,-1.104 -0.082,-2.236 -0.109,-3.34 l 0.98,0 c 0.108,2.65 2.232,2.65 4.301,2.65 l 8.412,0 -14.074,-12.532 z m 9.664,33.661 4.655,0 c 0.381,0 2.232,0 2.532,-0.083 0.327,-0.083 0.299,-1.021 0.299,-1.325 0,-2.595 -1.307,-3.644 -3.784,-3.644 -2.695,0 -3.702,1.353 -3.702,4.003 l 0,1.049 z m -0.3,-5.3 c 0.354,-2.263 1.879,-4.334 4.302,-4.334 1.906,0 3.376,0.939 4.083,2.733 0.517,1.215 0.599,3.23 0.653,4.554 -0.027,1.491 -0.081,2.982 -0.108,4.472 0.027,1.574 0.081,3.119 0.108,4.693 l -0.979,0 c 0.081,-2.65 -1.198,-2.595 -3.431,-2.595 l -9.201,0 c -2.232,0 -3.512,-0.055 -3.43,2.595 l -0.98,0 c 0.027,-1.574 0.081,-3.119 0.109,-4.693 -0.028,-1.573 -0.082,-3.174 -0.109,-4.747 l 0.98,0 c -0.082,2.649 1.198,2.622 3.43,2.622 l 3.593,0 c 0,-0.138 0.028,-0.304 0.028,-0.442 0.054,-0.773 -1.307,-1.96 -2.559,-2.871 l -5.472,-3.919 c 0.027,-0.911 0.081,-1.822 0.109,-2.733 -0.028,-0.911 -0.082,-1.822 -0.109,-2.732 l 0.98,0 c 0.163,0.773 0.353,1.186 0.952,1.766 0.708,0.663 1.607,1.27 2.396,1.849 l 4.655,3.782 z m -8.983,33.382 c 0.027,-1.573 0.081,-3.119 0.109,-4.692 -0.028,-3.809 -0.082,-7.619 -0.109,-11.428 0.735,0.028 1.443,0.083 2.178,0.111 1.034,-0.028 2.041,-0.083 3.076,-0.111 l 0,1.104 c -3.076,0.691 -4.002,1.905 -4.002,5.024 0,3.257 1.633,3.174 4.192,3.174 l 3.185,0 c 0,-2.539 -0.435,-3.257 -2.94,-3.781 l 0,-1.104 c 1.117,0.027 2.26,0.083 3.376,0.11 1.252,-0.027 2.504,-0.083 3.757,-0.11 l 0,1.104 c -2.532,0.11 -2.94,1.546 -2.94,3.781 l 5.036,0 c 0.218,0 1.415,0 1.552,-0.082 0.299,-0.166 0.299,-1.933 0.299,-2.264 0,-2.65 -0.843,-4.223 -3.539,-4.692 l 0,-1.187 4.791,0.221 c -0.027,3.367 -0.081,6.762 -0.108,10.13 0.027,1.573 0.081,3.119 0.108,4.692 l -0.979,0 c 0.081,-2.65 -1.198,-2.594 -3.431,-2.594 l -9.201,0 c -2.232,0 -3.512,-0.056 -3.43,2.594 l -0.98,0 z m 18.021,5.508 0,17.776 -5.172,0.166 0,-1.187 c 2.369,-0.442 4.03,-1.463 3.812,-4.168 -0.137,-1.739 -0.028,-1.656 -1.988,-1.656 l -10.263,0 c -2.423,0 -3.512,-0.028 -3.43,2.788 l -0.98,0 c 0.027,-1.629 0.081,-3.257 0.109,-4.886 -0.028,-1.629 -0.082,-3.257 -0.109,-4.886 l 0.98,0 c -0.082,2.816 1.007,2.761 3.43,2.761 l 10.263,0 c 2.151,0.055 1.988,0.138 1.988,-1.656 0,-2.402 -1.525,-3.755 -3.812,-4.031 l 0,-1.186 5.172,0.165 z m -16.469,34.87 c -1.253,-1.242 -1.852,-3.036 -1.852,-4.803 0,-3.395 1.906,-6.542 5.581,-6.542 3.648,0 4.927,2.788 6.18,5.742 0.708,1.573 1.279,3.671 3.321,3.671 1.47,0 2.232,-1.38 2.232,-2.733 0,-2.401 -1.823,-3.975 -3.92,-4.471 l 0,-1.187 4.9,0.165 0,1.187 -1.062,0.359 c 1.008,1.104 1.335,2.65 1.335,4.14 0,3.202 -1.797,5.797 -5.145,5.797 -2.995,0 -4.357,-2.015 -5.418,-4.499 -0.817,-1.932 -1.497,-4.582 -4.029,-4.582 -1.688,0 -2.722,1.545 -2.722,3.146 0,3.064 2.286,4.334 4.764,5.107 l 0,1.104 -5.663,0 0,-1.215 1.498,-0.386 z m -1.552,23.611 c 0.027,-1.574 0.081,-3.119 0.109,-4.693 -0.028,-3.809 -0.082,-7.618 -0.109,-11.427 0.735,0.027 1.443,0.083 2.178,0.11 1.034,-0.027 2.041,-0.083 3.076,-0.11 l 0,1.104 c -3.076,0.69 -4.002,1.905 -4.002,5.024 0,3.257 1.633,3.174 4.192,3.174 l 3.185,0 c 0,-2.54 -0.435,-3.257 -2.94,-3.782 l 0,-1.104 c 1.117,0.028 2.26,0.083 3.376,0.111 1.252,-0.028 2.504,-0.083 3.757,-0.111 l 0,1.104 c -2.532,0.111 -2.94,1.546 -2.94,3.782 l 5.036,0 c 0.218,0 1.415,0 1.552,-0.083 0.299,-0.165 0.299,-1.932 0.299,-2.263 0,-2.65 -0.843,-4.223 -3.539,-4.693 l 0,-1.187 4.791,0.221 c -0.027,3.368 -0.081,6.763 -0.108,10.13 0.027,1.574 0.081,3.119 0.108,4.693 l -0.979,0 c 0.081,-2.65 -1.198,-2.595 -3.431,-2.595 l -9.201,0 c -2.232,0 -3.512,-0.055 -3.43,2.595 l -0.98,0 z m -0.3,12.713 0,-1.325 15.218,-5.078 c 1.28,-0.415 1.961,-0.746 2.124,-2.154 l 0.979,0 c -0.027,1.077 -0.081,2.126 -0.108,3.202 0.027,0.939 0.081,1.877 0.108,2.816 l -0.979,0 c -0.191,-1.215 -0.327,-2.236 -1.851,-2.236 -1.035,0 -3.894,0.883 -5.037,1.242 l -4.519,1.435 12.386,4.334 0,1.242 -12.577,3.975 7.242,2.346 c 0.68,0.221 2.341,0.801 3.022,0.801 1.279,0 1.171,-1.436 1.334,-2.346 l 0.979,0 c -0.027,1.628 -0.081,3.229 -0.108,4.858 0.027,1.38 0.081,2.787 0.108,4.168 l -0.979,0 c -0.3,-1.905 -0.763,-1.933 -2.423,-2.54 l -14.919,-5.217 0,-1.352 11.734,-4.113 -11.734,-4.058" />
      <path
         inkscape:connector-curvature="0"
         id="path11491"
         style="fill:#bba762;fill-opacity:1;fill-rule:nonzero;stroke:#bba762;stroke-width:1.87796474;stroke-linecap:butt;stroke-linejoin:miter;stroke-miterlimit:3.86400008;stroke-opacity:1;stroke-dasharray:none"
         d="m 606.9928,752.00024 0,-137.27067 -50.14411,0 0,137.27067 50.14411,0 z" />
      <path
         inkscape:connector-curvature="0"
         id="path11495"
         style="fill:#151f50;fill-opacity:1;fill-rule:evenodd;stroke:none"
         d="m 556.849,752.027 50.145,0 0,-137.275 -50.145,0 0,137.275 z m 50.145,0 z m 20.854,20.687 -114.739,0 c -11.741,0 -18.187,0 -28.316,-5.377 -18.166,-9.643 -29.007,-27.777 -41.899,-50.185 -6.907,-12.006 -12.202,-20.958 -20.72,-33.763 8.518,-12.805 13.813,-21.757 20.72,-33.762 12.892,-22.408 23.733,-40.543 41.899,-50.185 10.129,-5.377 16.575,-5.377 28.316,-5.377 l 114.739,0 0,178.649" />
      <path
         inkscape:connector-curvature="0"
         id="path11499"
         style="fill:#ffffff;fill-opacity:1;fill-rule:evenodd;stroke:none"
         d="m 513.97,710.232 1.305,0 0,1.323 1.305,0 0,3.972 -1.305,0 0,1.323 -1.305,0 0,1.324 -24.798,-0.331 0,-8.603 24.798,-0.331 0,1.323 z m -30.671,19.19 0.97876,0 0,-92.633 -0.97876,0 0,92.633 z m 0.978,0 z m 0.98,-1.985 0.9783,0 0,-88.663 -0.9783,0 0,88.663 z m 0.978,0 z m 0.989,-1.985 0.97876,0 0,-84.693 -0.97876,0 0,84.693 z m 0.979,0 z m 25.767,-2.977 c 0,-0.366 -0.292,-0.662 -0.652,-0.662 l -23.493,0 c -0.361,0 -0.653,0.296 -0.653,0.662 0,0.365 0.292,0.661 0.653,0.661 l 23.493,0 c 0.36,0 0.652,-0.296 0.652,-0.661 z m 0,-2.647 c 0,-0.365 -0.292,-0.662 -0.652,-0.662 l -23.493,0 c -0.361,0 -0.653,0.297 -0.653,0.662 0,0.365 0.292,0.662 0.653,0.662 l 23.493,0 c 0.36,0 0.652,-0.297 0.652,-0.662 z m 2.61,3.97 0,-5.293 c 0,-0.366 -0.292,-0.662 -0.652,-0.662 -0.36,0 -0.653,0.296 -0.653,0.662 l 0,5.293 c 0,0.365 0.293,0.661 0.653,0.661 0.36,0 0.652,-0.296 0.652,-0.661 z m -2.61,-16.542 c 0,-0.365 -0.292,-0.662 -0.652,-0.662 l -23.493,0 c -0.361,0 -0.653,0.297 -0.653,0.662 0,0.366 0.292,0.662 0.653,0.662 l 23.493,0 c 0.36,0 0.652,-0.296 0.652,-0.662 z m 0,-2.646 c 0,-0.366 -0.292,-0.662 -0.652,-0.662 l -23.493,0 c -0.361,0 -0.653,0.296 -0.653,0.662 0,0.365 0.292,0.661 0.653,0.661 l 23.493,0 c 0.36,0 0.652,-0.296 0.652,-0.661 z m 2.61,3.97 0,-5.294 c 0,-0.365 -0.292,-0.661 -0.652,-0.661 -0.36,0 -0.653,0.296 -0.653,0.661 l 0,5.294 c 0,0.365 0.293,0.661 0.653,0.661 0.36,0 0.652,-0.296 0.652,-0.661 z m 0,-15.219 0,-5.293 c 0,-0.366 -0.292,-0.662 -0.652,-0.662 -0.36,0 -0.653,0.296 -0.653,0.662 l 0,5.293 c 0,0.366 0.293,0.662 0.653,0.662 0.36,0 0.652,-0.296 0.652,-0.662 z m -2.61,-1.323 c 0,-0.366 -0.292,-0.662 -0.652,-0.662 l -23.493,0 c -0.361,0 -0.653,0.296 -0.653,0.662 0,0.365 0.292,0.662 0.653,0.662 l 23.493,0 c 0.36,0 0.652,-0.297 0.652,-0.662 z m 0,-2.647 c 0,-0.365 -0.292,-0.662 -0.652,-0.662 l -23.493,0 c -0.361,0 -0.653,0.297 -0.653,0.662 0,0.366 0.292,0.662 0.653,0.662 l 23.493,0 c 0.36,0 0.652,-0.296 0.652,-0.662 z m 3.915,33.745 3.263,0 0,-80.062 -3.263,0 0,80.062 z m 3.263,0 z m 8.484,1.654 0,-83.37 c 0,-0.548 -0.438,-0.992 -0.979,-0.992 -0.54,0 -0.979,0.444 -0.979,0.992 l 0,83.37 c 0,0.549 0.439,0.993 0.979,0.993 0.541,0 0.979,-0.444 0.979,-0.993 z m -3.263,-2.315 c 0,-0.366 -0.292,-0.662 -0.653,-0.662 l -2.61,0 c -0.361,0 -0.652,0.296 -0.652,0.662 0,0.365 0.291,0.661 0.652,0.661 l 2.61,0 c 0.361,0 0.653,-0.296 0.653,-0.661 z m 0,-2.647 c 0,-0.365 -0.292,-0.662 -0.653,-0.662 l -2.61,0 c -0.361,0 -0.652,0.297 -0.652,0.662 0,0.365 0.291,0.662 0.652,0.662 l 2.61,0 c 0.361,0 0.653,-0.297 0.653,-0.662 z m 0,-12.572 c 0,-0.365 -0.292,-0.662 -0.653,-0.662 l -2.61,0 c -0.361,0 -0.652,0.297 -0.652,0.662 0,0.366 0.291,0.662 0.652,0.662 l 2.61,0 c 0.361,0 0.653,-0.296 0.653,-0.662 z m 0,-2.646 c 0,-0.366 -0.292,-0.662 -0.653,-0.662 l -2.61,0 c -0.361,0 -0.652,0.296 -0.652,0.662 0,0.365 0.291,0.661 0.652,0.661 l 2.61,0 c 0.361,0 0.653,-0.296 0.653,-0.661 z m 0,-12.572 c 0,-0.366 -0.292,-0.662 -0.653,-0.662 l -2.61,0 c -0.361,0 -0.652,0.296 -0.652,0.662 0,0.365 0.291,0.662 0.652,0.662 l 2.61,0 c 0.361,0 0.653,-0.297 0.653,-0.662 z m 0,-2.647 c 0,-0.365 -0.292,-0.662 -0.653,-0.662 l -2.61,0 c -0.361,0 -0.652,0.297 -0.652,0.662 0,0.366 0.291,0.662 0.652,0.662 l 2.61,0 c 0.361,0 0.653,-0.296 0.653,-0.662 z m 0,26.135 0,-3.97 c 0,-0.365 -0.292,-0.661 -0.653,-0.661 l -2.61,0 c -0.361,0 -0.652,0.296 -0.652,0.661 l 0,3.97 c 0,0.366 0.291,0.662 0.652,0.662 l 2.61,0 c 0.361,0 0.653,-0.296 0.653,-0.662 z m 0,-15.218 0,-3.97 c 0,-0.366 -0.292,-0.662 -0.653,-0.662 l -2.61,0 c -0.361,0 -0.652,0.296 -0.652,0.662 l 0,3.97 c 0,0.365 0.291,0.662 0.652,0.662 l 2.61,0 c 0.361,0 0.653,-0.297 0.653,-0.662 z m 0,-15.218 0,-3.97 c 0,-0.366 -0.292,-0.662 -0.653,-0.662 l -2.61,0 c -0.361,0 -0.652,0.296 -0.652,0.662 l 0,3.97 c 0,0.365 0.291,0.661 0.652,0.661 l 2.61,0 c 0.361,0 0.653,-0.296 0.653,-0.661 z m -37.197,-21.504 0,8.604 24.798,0.33 0,-1.323 1.305,0 0,-1.323 1.305,0 0,-3.972 -1.305,0 0,-1.323 -1.305,0 0,-1.324 -24.798,0.331 z m 24.798,-7.607 1.305,0 0,-1.324 1.305,0 0,-3.971 -1.305,0 0,-1.324 -1.305,0 0,-1.323 -24.798,0.331 0,8.603 24.798,0.331 0,-1.323 z m 0,-12.243 c 0,-0.365 -0.292,-0.661 -0.652,-0.661 l -23.493,0 c -0.361,0 -0.653,0.296 -0.653,0.661 0,0.366 0.292,0.662 0.653,0.662 l 23.493,0 c 0.36,0 0.652,-0.296 0.652,-0.662 z m 0,2.647 c 0,-0.366 -0.292,-0.662 -0.652,-0.662 l -23.493,0 c -0.361,0 -0.653,0.296 -0.653,0.662 0,0.365 0.292,0.662 0.653,0.662 l 23.493,0 c 0.36,0 0.652,-0.297 0.652,-0.662 z m 2.61,1.323 0,-5.293 c 0,-0.366 -0.292,-0.662 -0.652,-0.662 -0.36,0 -0.653,0.296 -0.653,0.662 l 0,5.293 c 0,0.366 0.293,0.662 0.653,0.662 0.36,0 0.652,-0.296 0.652,-0.662 z m -2.61,11.249 c 0,-0.366 -0.292,-0.662 -0.652,-0.662 l -23.493,0 c -0.361,0 -0.653,0.296 -0.653,0.661 0,0.366 0.292,0.662 0.653,0.662 l 23.493,0 c 0.36,0 0.652,-0.296 0.652,-0.661 z m 0,2.646 c 0,-0.365 -0.292,-0.661 -0.652,-0.661 l -23.493,0 c -0.361,0 -0.653,0.296 -0.653,0.661 0,0.366 0.292,0.662 0.653,0.662 l 23.493,0 c 0.36,0 0.652,-0.296 0.652,-0.662 z m 2.61,1.324 0,-5.294 c 0,-0.365 -0.292,-0.661 -0.652,-0.661 -0.36,0 -0.653,0.296 -0.653,0.661 l 0,5.294 c 0,0.365 0.293,0.661 0.653,0.661 0.36,0 0.652,-0.296 0.652,-0.661 z m 0,15.218 0,-5.294 c 0,-0.365 -0.292,-0.661 -0.652,-0.661 -0.36,0 -0.653,0.296 -0.653,0.661 l 0,5.294 c 0,0.365 0.293,0.662 0.653,0.662 0.36,0 0.652,-0.297 0.652,-0.662 z m -2.61,-3.97 c 0,-0.366 -0.292,-0.662 -0.652,-0.662 l -23.493,0 c -0.361,0 -0.653,0.296 -0.653,0.662 0,0.365 0.292,0.662 0.653,0.662 l 23.493,0 c 0.36,0 0.652,-0.297 0.652,-0.662 z m 0,2.647 c 0,-0.366 -0.292,-0.662 -0.652,-0.662 l -23.493,0 c -0.361,0 -0.653,0.296 -0.653,0.661 0,0.366 0.292,0.662 0.653,0.662 l 23.493,0 c 0.36,0 0.652,-0.296 0.652,-0.661 z m 12.399,-33.084 c 0,-0.365 -0.292,-0.661 -0.653,-0.661 l -2.61,0 c -0.361,0 -0.652,0.296 -0.652,0.661 0,0.366 0.291,0.662 0.652,0.662 l 2.61,0 c 0.361,0 0.653,-0.296 0.653,-0.662 z m 0,2.647 c 0,-0.366 -0.292,-0.662 -0.653,-0.662 l -2.61,0 c -0.361,0 -0.652,0.296 -0.652,0.662 0,0.365 0.291,0.662 0.652,0.662 l 2.61,0 c 0.361,0 0.653,-0.297 0.653,-0.662 z m 0,12.572 c 0,-0.366 -0.292,-0.662 -0.653,-0.662 l -2.61,0 c -0.361,0 -0.652,0.296 -0.652,0.661 0,0.366 0.291,0.662 0.652,0.662 l 2.61,0 c 0.361,0 0.653,-0.296 0.653,-0.661 z m 0,2.646 c 0,-0.365 -0.292,-0.661 -0.653,-0.661 l -2.61,0 c -0.361,0 -0.652,0.296 -0.652,0.661 0,0.366 0.291,0.662 0.652,0.662 l 2.61,0 c 0.361,0 0.653,-0.296 0.653,-0.662 z m 0,12.572 c 0,-0.366 -0.292,-0.662 -0.653,-0.662 l -2.61,0 c -0.361,0 -0.652,0.296 -0.652,0.662 0,0.365 0.291,0.662 0.652,0.662 l 2.61,0 c 0.361,0 0.653,-0.297 0.653,-0.662 z m 0,2.647 c 0,-0.366 -0.292,-0.662 -0.653,-0.662 l -2.61,0 c -0.361,0 -0.652,0.296 -0.652,0.661 0,0.366 0.291,0.662 0.652,0.662 l 2.61,0 c 0.361,0 0.653,-0.296 0.653,-0.661 z m 0,-22.165 0,-3.97 c 0,-0.366 -0.292,-0.662 -0.653,-0.662 l -2.61,0 c -0.361,0 -0.652,0.296 -0.652,0.662 l 0,3.97 c 0,0.365 0.291,0.661 0.652,0.661 l 2.61,0 c 0.361,0 0.653,-0.296 0.653,-0.661 z m 0,15.218 0,-3.97 c 0,-0.366 -0.292,-0.662 -0.653,-0.662 l -2.61,0 c -0.361,0 -0.652,0.296 -0.652,0.662 l 0,3.97 c 0,0.365 0.291,0.661 0.652,0.661 l 2.61,0 c 0.361,0 0.653,-0.296 0.653,-0.661 z m 15.088,13.232 -10.667,43.32 c -0.132,0.532 -0.042,1.07 0.482,1.203 0.525,0.133 0.826,-0.191 0.957,-0.723 l 10.776,-43.8 -10.776,-43.799 c -0.131,-0.532 -0.432,-0.856 -0.957,-0.723 -0.524,0.132 -0.614,0.671 -0.482,1.203 l 10.667,43.319 z m -3.015,0 -7.505,30.777 0,5.471 c 0,0 8.85,-36.233 8.85,-36.248 0,-0.014 -8.85,-36.247 -8.85,-36.247 l 0,5.471 7.505,30.776 z m -7.505,24.775 5.936,-24.775 -5.936,-24.774 0,49.549 z m -14.357,-26.76 -1.305,0 0,-1.323 -1.305,0 0,-1.323 -24.798,0.331 0,8.601 24.798,0.331 0,-1.323 1.305,0 0,-1.324 1.305,0 0,-3.97 z m -27.408,21.505 0,-8.604 24.798,-0.331 0,1.324 1.305,0 0,1.323 1.305,0 0,3.972 -1.305,0 0,1.323 -1.305,0 0,1.323 -24.798,-0.33 z m -6.852,27.789 2.936,0 0,-1.984 1.949,-0.002 0.009,-1.982 1.958,-0.002 0,-1.985 24.472,-0.332 0,0.994 1.305,0 0,0.993 2.937,0 -10e-4,-1.655 8.484,0 0,2.647 2.407,0 1.305,2.316 3.112,0 11.323,-46.317 -11.323,-46.283 -3.112,0 -1.305,2.316 -2.407,0 0,2.646 -8.484,0 10e-4,-1.654 -2.937,0 0,0.993 -1.305,0 0,0.994 -24.472,-0.333 0,-1.985 -1.958,-10e-4 -0.009,-1.982 -1.949,-0.002 0,-1.985 -2.928,0 -0.008,94.585" />
      <path
         inkscape:connector-curvature="0"
         id="path11503"
         style="fill:#ffffff;fill-opacity:1;fill-rule:evenodd;stroke:none"
         d="m 616.921,678.18 c 3.931,7.538 0,10.382 0,10.382 l -1.637,-1.66 c 0.261,-2.218 2.603,-3.558 1.476,-5.878 -0.269,1.503 -2.107,3.136 -2.214,5.272 -0.006,0.012 -2.396,-1.394 -2.396,-1.394 -0.375,-2.429 3.986,-4.314 4.771,-6.722 z m -6.239,8.257 c 9.29,6.14 4.883,14.109 4.883,14.109 -1.521,-2.155 -0.718,-6.973 -3.005,-8.641 1.528,2.819 -0.411,6.754 1.729,10.762 -0.033,-0.158 -0.707,2.189 -0.707,2.189 -1.153,-1.514 -1.942,-3.116 -2.766,-5.414 -1.731,-4.821 1.797,-9.524 -0.134,-13.005 z M 442.158,658.918 c -0.732,6.752 -7.999,8.947 -12.677,22.408 2.018,-0.964 3.757,-1.866 5.267,-3.619 2.791,-9.251 6.695,-11.518 7.171,-13.511 0.198,2.93 -2.409,4.669 -2.707,7.043 6.259,-4.093 4.173,-10.361 2.946,-12.321 z m 8.546,8.91 c -4.939,0.605 -10.39,3.886 -14.136,11.225 3.235,-0.561 5.748,-5.526 9.835,-7.166 -3.236,2.547 -5.28,8.245 -11.539,9.411 11.369,1.814 12.945,-10.534 15.84,-13.47 z m -0.638,-22.506 c -4.037,4.248 -6.72,10.422 -4.25,16.121 0.809,-6.39 2.81,-7.555 2.893,-11.658 0.854,2.721 -0.722,6.564 -0.688,8.316 0.648,-0.975 1.465,-1.243 1.465,-1.243 1.993,-3.877 0.886,-8.928 0.58,-11.536 z m 9.588,7.789 c -5.748,1.727 -10.474,5.137 -13.327,11.181 4.703,-3.708 6.43,-3.712 9.027,-6.821 -2.342,4.706 -5.663,5.483 -8.437,9.011 10.438,-1.887 10.874,-11.012 12.737,-13.371 z m -3.729,-16.838 c -3.509,4.922 -4.105,12.607 -2.93,16.613 1.252,-5.906 2.444,-6.985 2.316,-11.561 1.278,3.928 -0.766,7.857 -0.851,12.045 6.685,-6.468 1.533,-14.074 1.465,-17.097 z m 13.949,1.641 c -5.28,0.432 -9.794,1.079 -10.168,6.338 3.483,-0.898 3.508,-3.385 5.893,-3.903 -2.385,1.425 -1.559,3.998 -5.987,5.595 -0.079,1.044 -0.426,2.072 -0.426,2.072 7.239,-1.407 6.931,-7.529 10.688,-10.102 z m -2.853,-15.24 c -4.556,2.072 -10.858,9.282 -9.019,13.081 2.972,-1.942 1.992,-4.634 5.442,-7.9 -2.64,3.885 -1.384,7.506 -5.067,9.584 0.447,0.944 0.709,1.87 0.709,1.87 7.254,-3.295 4.537,-11.627 7.935,-16.635 z m 13.498,0.855 c -10.901,0.44 -13.03,4.412 -14.955,9.843 4.182,-0.898 4.906,-5.388 9.504,-6.467 -4.172,2.072 -4.343,6.346 -8.652,8.021 9.163,-0.25 10.318,-8.889 14.103,-11.397 z m -2.972,-14.221 c -5.613,2.167 -8.082,9.636 -8.278,14.575 0,0 0.725,-0.346 2.027,-1.01 0.427,-2.166 1.443,-6.872 3.662,-9.023 -1.026,1.94 -2.215,6.216 -2.044,8.418 4.13,-3.065 2.555,-9.195 4.633,-12.96 z m 14.996,-8.147 c -5.876,-0.604 -12.519,5.742 -13.284,10.146 0,0 1.064,-0.604 2.512,-0.777 0.851,-1.814 2.724,-4.404 5.535,-5.656 -1.619,1.468 -3.322,3.67 -3.747,5.483 0,0 1.533,-0.129 2.384,0.043 2.64,-1.338 2.512,-6.951 6.6,-9.239 z m 0.852,12.814 c -7.384,-2.495 -13.472,-1.977 -14.707,1.131 2.895,1.813 7.153,-1.425 9.529,-0.095 -2.248,-0.207 -7.486,3.765 -9.913,2.038 0.043,0.173 -0.298,1.511 -0.851,2.728 8.09,2.539 11.539,-4.757 15.942,-5.802 z m 15.013,-2.724 c -6.838,-1.235 -7.902,-7.063 -16.009,-5.284 4.445,1.027 4.956,3.617 8.064,4.049 -3.321,0.777 -6.43,-2.936 -10.381,-2.564 0.332,1.485 8.422,6.838 18.326,3.799 z m 4.599,-12.917 c -5.774,-1.529 -14.758,-1.011 -18.463,3.523 2.044,0.474 9.581,-3.152 12.135,-1.9 -3.15,-0.605 -8.813,3.929 -9.921,3.177 5.877,3.601 12.178,-3.782 16.249,-4.8 z m 13.216,12.433 c -6.386,-2.089 -8.26,-8.306 -18.394,-6.881 4.557,1.122 6.6,5.008 11.326,5.224 -5.407,0.949 -8.686,-3.627 -13.915,-3.523 4.207,5.12 12.212,7.235 20.983,5.18 z m 16.533,-13.02 c -6.961,-1.733 -12.967,-1.048 -16.43,0.708 1.731,0.443 2.543,1.128 2.543,1.128 1.102,-0.455 7.404,-1.555 8.596,-0.927 -2.385,0.403 -4.355,0.846 -7.517,1.773 6.086,3.367 10.543,-1.733 12.808,-2.682 z m 5.03,11.984 c -3.066,-1.106 -6.702,-5.535 -9.332,-5.708 -1.456,-0.096 -2.726,0.184 -4.272,1.471 4.362,0.46 3.898,2.914 8.256,3.466 -4.314,1.285 -5.649,-1.894 -9.616,-2.27 0,0 -1.818,1.015 -3.727,1.567 5.813,5.159 14.809,3.039 18.691,1.474 z m -15.694,-6.125 c -4.267,-0.46 -10.81,-7.641 -17.961,-3.705 7.151,-0.621 8.516,2.05 10.788,3.061 -3.179,0.924 -4.634,-3.131 -12.832,-1.265 6.198,0.07 13.467,6.607 20.005,1.909 z m 25.3,-6.032 c -6.606,-0.559 -12.435,0.437 -16.282,4.248 4.917,0.553 6.869,-3.371 11.174,-2.038 -3.404,0.345 -7.794,4.054 -10.05,3.869 5.236,3.56 12.181,-3.998 15.158,-6.079 z m 9.177,12.708 c -1.469,-0.592 -5.514,-5.59 -9.936,-6.029 -3.537,-0.352 -6.799,1.618 -6.799,1.618 5.771,-1.351 7.223,1.671 10.797,2.832 -2.471,0.516 -5.408,-2.72 -9.264,-1.45 2.795,2.965 7.299,4.961 15.202,3.029 z m 7.464,-13.089 c -4.508,-1.247 -13.15,-0.387 -16.824,3.835 4.863,0.745 6.824,-2.888 10.61,-2.405 -3.023,0.731 -3.801,3.329 -7.426,3.974 1.664,1.033 3.844,1.672 5.728,0.317 1.489,-1.071 3.065,-3.861 7.912,-5.721 z m 11.121,0.795 c -3.531,1.452 -7.92,-2.3 -14.992,4.904 3.286,0.473 6.86,-3.753 9.627,-2.85 -3.913,0.904 -4.474,4.15 -9.627,4.666 4.474,0.86 11.334,-1.644 14.992,-6.72 z m 3.44,13.539 c -3.397,-3.755 -9.738,-7.077 -14.238,-4.766 3.769,2.689 5.136,0.237 8.073,2.957 -3.404,-1.559 -5.94,0.9 -10.33,-2.422 -1,-0.758 -4.243,-0.721 -4.243,-0.721 0,0 4.607,4.553 9.505,5.036 4.899,0.483 6.426,-1.291 11.233,-0.084 z m -1.819,-8.389 c 10.45,1.973 11.919,-3.523 16.786,-5.02 -3.603,-1.619 -14.644,-2.321 -17.66,3.374 5.616,-3.058 8.841,-1.075 11.816,-2.214 -1.873,2.299 -7.199,0.759 -10.942,3.86 z m 17.292,7.656 c -4.409,-1.919 -7.135,-6.665 -11.691,-5.104 0.166,1.455 4.848,3.016 6.699,3.88 -2.725,-0.084 -6.699,-1.159 -9.258,-3.584 -1.143,0.126 -2.35,-0.043 -2.35,-0.043 1.623,3.017 8.425,6.939 16.6,4.851 z m 15.359,-6.849 c -3.459,0.242 -5.91,-0.083 -8.701,-0.856 -2.792,-0.772 -5.479,-2.268 -8.259,-0.76 3.452,0.718 4.41,4.241 10.276,3.397 -6.324,2.974 -8.383,-2.299 -13.168,-1.455 10.193,8.5 16.767,1.497 19.852,-0.326 z m 3.826,-4.488 c -5.923,-3.343 -11.671,-2.696 -14.264,-0.177 5.65,-1.142 8.043,-0.303 9.509,0.21 -1.896,-0.244 -6.717,0.034 -8.208,0.806 3.653,2.327 9.964,0.504 12.963,-0.839 z m -0.652,22.12 c 3.223,-6.643 0.588,-16.779 -0.273,-16.678 0,-0.033 -0.166,0.269 -0.497,0.47 0.936,1.353 0.397,9.498 0.738,11.388 -1.301,-1.344 -1.202,-10.279 -2.262,-10.145 -1.963,5.736 1.093,12.202 2.294,14.965 z m -11.637,6.869 c 2.626,-5.626 7.877,-9.598 6.013,-17.047 -1.258,4.787 -3.752,6.441 -4.745,11.286 -0.87,-3.871 2.957,-8.154 2.824,-12.395 -1.433,1.243 -5.483,4.476 -4.589,10.515 0.44,2.968 0.564,4.609 0.497,7.641 z m 7.115,-1.813 c -1.367,6.365 4.39,8.523 5.285,10.581 1.258,-9.943 -2.966,-15.603 -4.159,-16.04 0.001,0 -0.033,1.747 -0.563,2.629 1.334,3.233 3.288,4.643 3.09,8.926 -0.692,-3.181 -3.653,-6.097 -3.653,-6.097 l 0,0.001 z m -6.817,19.407 c 3.662,-3.401 5.086,-7.919 5.119,-10.246 0.032,-2.261 -0.53,-4.106 -0.53,-4.106 -1.863,1.78 -1.632,5.257 -2.89,8.692 0.397,-4.048 -0.232,-7.819 2.559,-11.052 -0.464,-1.52 -0.464,-2.595 -0.497,-2.561 -5.748,6.365 -2.99,14.452 -3.761,19.273 z m 12.4,8.792 c 0.861,-3.266 2.327,-9.674 -4.523,-16.879 0,0 0.332,2.057 -0.099,3.401 0.629,0.604 3.694,5.928 3.561,9.262 -1.101,-2.763 -3.031,-6.096 -3.826,-6.902 0,-0.034 -0.397,2.93 -0.166,3.871 0.148,0.601 1.027,4.249 5.053,7.247 z m -12.698,8.087 c 5.981,-5.122 6.453,-11.622 6.453,-11.622 l -0.298,-1.823 c -1.301,0.806 -3.397,6.173 -4.324,7.483 -0.298,-1.814 1.665,-7.315 3.685,-9.339 0,-0.033 -0.662,-2.082 -0.662,-2.082 -3.156,2.662 -4.772,6.703 -4.655,10.035 0.099,2.83 -1.093,3.981 -0.199,7.348 z m 12.565,7.138 c 0,-1.545 0.697,-3.918 0.331,-7.608 -0.364,-3.678 -4.555,-6.945 -4.555,-6.945 l -0.232,0.772 c 2.062,2.562 2.493,7.449 3.122,8.936 -1.855,-1.554 -2.724,-6.374 -3.784,-7.046 -2.858,2.595 2.36,9.775 5.118,11.891 z m -181.37,37.644 c -0.732,-6.752 -7.999,-8.947 -12.677,-22.409 2.018,0.965 3.757,1.867 5.267,3.619 2.791,9.251 6.695,11.519 7.171,13.511 0.198,-2.929 -2.409,-4.668 -2.707,-7.042 6.259,4.092 4.173,10.361 2.946,12.321 z m 8.546,-8.911 c -4.939,-0.604 -10.39,-3.885 -14.136,-11.225 3.235,0.562 5.748,5.526 9.835,7.167 -3.236,-2.547 -5.28,-8.246 -11.539,-9.411 11.369,-1.814 12.945,10.534 15.84,13.469 z m -0.638,22.586 c -4.037,-4.248 -6.72,-10.422 -4.25,-16.121 0.809,6.39 2.81,7.555 2.893,11.658 0.854,-2.721 -0.722,-6.563 -0.688,-8.316 0.648,0.976 1.465,1.243 1.465,1.243 1.993,3.877 0.886,8.928 0.58,11.536 z m 9.588,-7.868 c -5.748,-1.727 -10.474,-5.138 -13.327,-11.182 4.703,3.709 6.43,3.713 9.027,6.822 -2.342,-4.706 -5.663,-5.483 -8.437,-9.011 10.438,1.887 10.874,11.012 12.737,13.371 z m -3.729,16.837 c -3.509,-4.921 -4.105,-12.606 -2.93,-16.613 1.252,5.906 2.444,6.986 2.316,11.562 1.278,-3.929 -0.766,-7.857 -0.851,-12.045 6.685,6.467 1.533,14.074 1.465,17.096 z m 13.949,-1.64 c -5.28,-0.432 -9.794,-1.08 -10.168,-6.338 3.483,0.898 3.508,3.385 5.893,3.903 -2.385,-1.425 -1.559,-3.998 -5.987,-5.595 -0.079,-1.045 -0.426,-2.073 -0.426,-2.073 7.239,1.408 6.931,7.53 10.688,10.103 z m -2.853,15.24 c -4.556,-2.073 -10.858,-9.283 -9.019,-13.082 2.972,1.943 1.992,4.635 5.442,7.901 -2.64,-3.886 -1.384,-7.506 -5.067,-9.584 0.447,-0.945 0.709,-1.87 0.709,-1.87 7.254,3.294 4.537,11.627 7.935,16.635 z m 13.498,-0.855 c -10.901,-0.441 -13.03,-4.413 -14.955,-9.844 4.182,0.898 4.906,5.388 9.504,6.468 -4.172,-2.073 -4.343,-6.347 -8.652,-8.022 9.163,0.251 10.318,8.889 14.103,11.398 z m -2.972,14.221 c -5.613,-2.167 -8.082,-9.636 -8.278,-14.575 0,0 0.725,0.346 2.027,1.01 0.427,2.166 1.443,6.872 3.662,9.023 -1.026,-1.94 -2.215,-6.217 -2.044,-8.418 4.13,3.065 2.555,9.195 4.633,12.96 z m 14.996,8.146 c -5.876,0.605 -12.519,-5.742 -13.284,-10.145 0,0 1.064,0.604 2.512,0.777 0.851,1.813 2.724,4.404 5.535,5.656 -1.619,-1.468 -3.322,-3.67 -3.747,-5.483 0,0 1.533,0.129 2.384,-0.044 2.64,1.339 2.512,6.951 6.6,9.239 z m 0.852,-12.813 c -7.384,2.495 -13.472,1.977 -14.707,-1.131 2.895,-1.814 7.153,1.424 9.529,0.095 -2.248,0.207 -7.486,-3.765 -9.913,-2.038 0.043,-0.173 -0.298,-1.511 -0.851,-2.729 8.09,-2.538 11.539,4.758 15.942,5.803 z m 15.013,2.724 c -6.838,1.235 -7.902,7.063 -16.009,5.284 4.445,-1.027 4.956,-3.618 8.064,-4.049 -3.321,-0.777 -6.43,2.935 -10.381,2.564 0.332,-1.485 8.422,-6.838 18.326,-3.799 z m 4.599,12.917 c -5.774,1.528 -14.758,1.01 -18.463,-3.523 2.044,-0.475 9.581,3.152 12.135,1.9 -3.15,0.604 -8.813,-3.929 -9.921,-3.178 5.877,-3.6 12.178,3.782 16.249,4.801 z m 13.216,-12.434 c -6.386,2.09 -8.26,8.307 -18.394,6.882 4.557,-1.122 6.6,-5.008 11.326,-5.224 -5.407,-0.95 -8.686,3.627 -13.915,3.523 4.207,-5.12 12.212,-7.236 20.983,-5.181 z m 16.533,13.021 c -6.961,1.733 -12.967,1.048 -16.43,-0.708 1.731,-0.443 2.543,-1.128 2.543,-1.128 1.102,0.455 7.404,1.554 8.596,0.927 -2.385,-0.403 -4.355,-0.846 -7.517,-1.773 6.086,-3.368 10.543,1.732 12.808,2.682 z m 5.03,-11.984 c -3.066,1.106 -6.702,5.534 -9.332,5.708 -1.456,0.096 -2.726,-0.184 -4.272,-1.471 4.362,-0.46 3.898,-2.914 8.256,-3.466 -4.314,-1.286 -5.649,1.894 -9.616,2.27 0,0 -1.818,-1.016 -3.727,-1.568 5.813,-5.158 14.809,-3.039 18.691,-1.473 z m -15.694,6.125 c -4.267,0.46 -10.81,7.641 -17.961,3.705 7.151,0.621 8.516,-2.05 10.788,-3.061 -3.179,-0.924 -4.634,3.13 -12.832,1.265 6.198,-0.07 13.467,-6.608 20.005,-1.909 z m 25.3,6.032 c -6.606,0.559 -12.435,-0.437 -16.282,-4.248 4.917,-0.554 6.869,3.371 11.174,2.037 -3.404,-0.344 -7.794,-4.053 -10.05,-3.868 5.236,-3.56 12.181,3.998 15.158,6.079 z m 9.177,-12.709 c -1.469,0.592 -5.514,5.59 -9.936,6.03 -3.537,0.352 -6.799,-1.619 -6.799,-1.619 5.771,1.352 7.223,-1.67 10.797,-2.831 -2.471,-0.517 -5.408,2.72 -9.264,1.45 2.795,-2.966 7.299,-4.961 15.202,-3.03 z m 7.464,13.089 c -4.508,1.248 -13.15,0.388 -16.824,-3.834 4.863,-0.745 6.824,2.888 10.61,2.405 -3.023,-0.731 -3.801,-3.329 -7.426,-3.975 1.664,-1.032 3.844,-1.672 5.728,-0.317 1.489,1.072 3.065,3.862 7.912,5.721 z m 11.121,-0.794 c -3.531,-1.452 -7.92,2.3 -14.992,-4.904 3.286,-0.473 6.86,3.753 9.627,2.849 -3.913,-0.903 -4.474,-4.149 -9.627,-4.665 4.474,-0.861 11.334,1.644 14.992,6.72 z m 3.44,-13.539 c -3.397,3.755 -9.738,7.077 -14.238,4.766 3.769,-2.689 5.136,-0.237 8.073,-2.957 -3.404,1.558 -5.94,-0.9 -10.33,2.422 -1,0.757 -4.243,0.721 -4.243,0.721 0,0 4.607,-4.553 9.505,-5.036 4.899,-0.483 6.426,1.291 11.233,0.084 z m -1.819,8.389 c 10.45,-1.973 11.919,3.522 16.786,5.019 -3.603,1.619 -14.644,2.321 -17.66,-3.373 5.616,3.058 8.841,1.074 11.816,2.214 -1.873,-2.299 -7.199,-0.76 -10.942,-3.86 z m 17.292,-7.657 c -4.409,1.92 -7.135,6.666 -11.691,5.104 0.166,-1.454 4.848,-3.016 6.699,-3.88 -2.725,0.085 -6.699,1.16 -9.258,3.585 -1.143,-0.127 -2.35,0.042 -2.35,0.042 1.623,-3.016 8.425,-6.938 16.6,-4.851 z m 15.359,6.849 c -3.459,-0.241 -5.91,0.084 -8.701,0.856 -2.792,0.773 -5.479,2.269 -8.259,0.76 3.452,-0.717 4.41,-4.24 10.276,-3.396 -6.324,-2.974 -8.383,2.299 -13.168,1.455 10.193,-8.5 16.767,-1.497 19.852,0.325 z m 3.826,4.489 c -5.923,3.343 -11.671,2.696 -14.264,0.177 5.65,1.142 8.043,0.302 9.509,-0.211 -1.896,0.244 -6.717,-0.033 -8.208,-0.806 3.653,-2.326 9.964,-0.503 12.963,0.84 z M 622.6,745.406 c 3.223,6.643 0.588,16.779 -0.273,16.678 0,0.034 -0.166,-0.269 -0.497,-0.47 0.936,-1.352 0.397,-9.498 0.738,-11.387 -1.301,1.343 -1.202,10.279 -2.262,10.144 -1.963,-5.736 1.093,-12.202 2.294,-14.965 z m -11.637,-6.869 c 2.626,5.626 7.877,9.598 6.013,17.047 -1.258,-4.787 -3.752,-6.441 -4.745,-11.286 -0.87,3.871 2.957,8.154 2.824,12.395 -1.433,-1.243 -5.483,-4.476 -4.589,-10.514 0.44,-2.968 0.564,-4.61 0.497,-7.642 z m 7.115,1.813 c -1.367,-6.365 4.39,-8.523 5.285,-10.581 1.258,9.943 -2.966,15.604 -4.159,16.04 0.001,0 -0.033,-1.746 -0.563,-2.628 1.334,-3.233 3.288,-4.644 3.09,-8.927 -0.692,3.181 -3.653,6.097 -3.653,6.097 l 0,-10e-4 z m -6.817,-19.407 c 3.662,3.401 5.086,7.919 5.119,10.246 0.032,2.261 -0.53,4.106 -0.53,4.106 -1.863,-1.78 -1.632,-5.257 -2.89,-8.692 0.397,4.048 -0.232,7.819 2.559,11.052 -0.464,1.52 -0.464,2.595 -0.497,2.561 -5.748,-6.365 -2.99,-14.452 -3.761,-19.273 z m 12.4,-8.792 c 0.861,3.266 2.327,9.674 -4.523,16.879 0,0 0.332,-2.057 -0.099,-3.401 0.629,-0.604 3.694,-5.928 3.561,-9.262 -1.101,2.763 -3.031,6.097 -3.826,6.903 0,0.033 -0.397,-2.931 -0.166,-3.871 0.148,-0.601 1.027,-4.25 5.053,-7.248 z m -12.698,-8.087 c 5.981,5.123 6.453,11.622 6.453,11.622 l -0.298,1.823 c -1.301,-0.806 -3.397,-6.173 -4.324,-7.483 -0.298,1.814 1.665,7.315 3.685,9.339 0,0.034 -0.662,2.082 -0.662,2.082 -3.156,-2.662 -4.772,-6.703 -4.655,-10.035 0.099,-2.83 -1.093,-3.981 -0.199,-7.348 z m 12.565,-7.138 c 0,1.545 0.697,3.918 0.331,7.608 -0.364,3.679 -4.555,6.945 -4.555,6.945 l -0.232,-0.772 c 2.062,-2.562 2.493,-7.449 3.122,-8.936 -1.855,1.554 -2.724,6.374 -3.784,7.046 -2.858,-2.595 2.36,-9.775 5.118,-11.891 z m -0.919,-15.437 c 3.694,10.73 -1.111,14.891 -1.111,14.891 l -0.669,-3.042 c 0.812,-1.389 0.966,-4 1.332,-4.978 -1.243,0.964 -1.145,2.703 -2.077,3.549 -0.004,0.012 -1.15,-1.94 -1.15,-1.94 0.635,-2.614 3.181,-4.569 3.675,-8.48 z m 1.328,-1.317 c 0,-7.549 -3.681,-10.739 -3.681,-10.739 l -0.049,3.14 c 1.039,1.225 1.637,3.77 2.165,4.668 -1.389,-0.73 -1.59,-2.46 -2.653,-3.129 -0.006,-0.012 -0.801,2.113 -0.801,2.113 0.629,1.52 3.329,3.093 5.019,3.947 z m -13.254,1.406 c 9.29,-6.14 4.882,-14.109 4.882,-14.109 -1.521,2.154 -0.717,6.973 -3.004,8.64 1.528,-2.819 -0.412,-6.754 1.728,-10.762 -0.033,0.159 -0.707,-2.19 -0.707,-2.19 -1.154,1.514 -1.942,3.117 -2.767,5.415 -1.73,4.821 1.799,9.525 -0.132,13.006" />
      <path
         inkscape:connector-curvature="0"
         id="path11507"
         style="fill:#151f50;fill-opacity:1;fill-rule:evenodd;stroke:none"
         d="m 572.301,680.084 c 0.171,0.693 0.256,1.566 -0.235,2.405 -2.736,0 -4.373,0.811 -6.989,0 -0.75,-0.232 -0.381,-2.578 0.795,-2.578 2.244,0 4.185,0.021 6.429,0.173 z m 25.516,-6.333 c -0.965,1.393 -1.977,2.489 -1.977,2.489 -0.251,-1.671 -0.605,-2.772 -0.921,-3.21 0,0 1.366,-0.17 2.898,0.721 z m -2.948,-4.793 c -1.124,-0.331 -1.866,-0.167 -2.91,-0.014 0.81,0.631 1.228,0.962 1.687,1.648 0,0 0.636,-0.552 1.223,-1.634 z m 4.439,10.94 c -1.314,-1.333 -2.935,-1.632 -2.935,-1.632 0.236,1.41 0.699,2.333 1.237,3.276 0,0 1.122,-0.601 1.698,-1.644 z m -10.986,3.528 c 0,0 2.032,1.255 2.886,3.082 -0.901,1.971 -2.452,2.787 -2.452,2.787 0,0 1.525,0.831 2.567,1.732 -0.193,0.861 -1.542,3.048 -1.542,3.048 l 1.545,0.959 c 2.228,-1.672 2.811,-6.818 3.257,-7.744 -0.993,0.039 -1.765,1.203 -3.144,0.851 1.533,-0.694 3.459,-3.165 3.878,-3.697 -0.927,-1.096 -2.769,-0.392 -4.65,-1.214 0.386,-1.007 4.341,-0.224 4.534,-1.359 -1.572,-0.431 -2.479,-2.578 -3.704,-3.087 1.649,-0.431 2.749,1.884 3.318,1.141 -1.346,-2.707 -0.833,-6.62 -4.025,-8.224 l -1.523,1.408 c 0,0 1.439,0.859 2.211,2.531 -1.236,1.164 -3.406,1.664 -3.406,1.664 0,0 2.196,0.923 3.097,2.895 -0.853,1.826 -2.847,3.227 -2.847,3.227 z m 0.53,-3.217 c -0.683,-0.865 -2.49,-1.622 -2.49,-1.622 0,0 -0.798,1.116 -1.884,1.641 1.1,0.605 1.63,1.493 1.63,1.493 0,0 1.989,-0.63 2.744,-1.512 z m -7.295,-17.155 c -1.516,0.893 -5.042,4.172 -5.916,6.252 -0.618,1.47 -3.86,4.104 -4.714,2.873 -1.026,-1.48 2.485,-8.432 10.63,-9.125 z m -6.367,0.961 c -3.835,-0.615 -9.649,5.113 -6.15,9.464 -0.041,-3.633 2.548,-8.006 6.15,-9.464 z m 12.489,7.102 c 0.608,-0.309 1.719,-0.99 2.247,-1.613 -0.288,-0.406 -1.655,-0.682 -1.655,-0.682 -0.97,0.172 -2.37,0.864 -2.37,0.864 0,0 1.1,0.555 1.778,1.431 z m -5.073,2.265 c 0,0 1.465,-0.528 2.285,-1.567 -0.461,-0.678 -1.81,-1.28 -1.81,-1.28 0,0 -1.012,0.372 -2.287,1.315 1.234,0.903 1.812,1.532 1.812,1.532 z m 2.079,4.059 c -0.785,-0.969 -2.184,-1.592 -2.184,-1.592 0,0 -1.184,1.014 -2.27,1.539 1.1,0.605 1.86,1.819 1.86,1.819 0,0 1.707,-0.589 2.594,-1.766 z m -4.584,2.882 c -0.364,-0.922 -1.896,-1.663 -1.896,-1.663 0,0 -1.126,1.248 -2.212,1.774 1.1,0.605 1.699,1.442 1.699,1.442 0,0 1.786,-0.663 2.409,-1.553 z m -1.897,-3.883 c 0,0 0.892,-0.342 1.966,-1.308 -0.46,-0.436 -1.536,-1.215 -1.536,-1.215 0,0 -0.983,0.654 -1.751,1.589 0,0 0.891,0.405 1.321,0.934 z m 8.598,14.028 c 0,0 2.119,0.417 2.563,1.178 -0.837,0.985 -2.419,1.857 -2.419,1.857 0,0 -0.683,-0.92 -1.831,-1.512 1.234,-0.903 1.687,-1.523 1.687,-1.523 z m 2.477,-4.111 c -0.683,0.866 -2.49,1.623 -2.49,1.623 0,0 -0.798,-1.116 -1.884,-1.642 1.1,-0.605 1.63,-1.493 1.63,-1.493 0,0 1.989,0.63 2.744,1.512 z m 8.966,5.519 c -0.965,-1.393 -1.978,-2.489 -1.978,-2.489 -0.251,1.671 -0.605,2.772 -0.921,3.21 0,0 1.366,0.17 2.899,-0.721 z m -2.692,4.257 c -1.124,0.331 -1.867,0.167 -2.91,0.014 0.809,-0.631 1.228,-0.962 1.687,-1.648 0,0 0.635,0.552 1.223,1.634 z m 3.759,-9.968 c -1.314,1.333 -2.858,1.566 -2.858,1.566 0,-1.333 0.622,-2.267 1.16,-3.21 0,0 1.122,0.602 1.698,1.644 z m -20.411,15.128 c -1.818,-1.073 -2.648,-3.63 -3.697,-6.127 -0.741,-1.764 -3.368,-4.825 -5.046,-4.218 -2.265,0.821 -1.032,10.865 8.743,10.345 z m -2.057,1.646 c -3.17,0 -6.173,0.786 -7.804,-4.432 0.855,1.826 3.171,4 7.804,4.432 z m 11.183,-7.64 c 0.608,0.308 1.719,0.99 2.247,1.613 -0.288,0.406 -1.655,0.681 -1.655,0.681 -0.97,-0.171 -2.369,-0.863 -2.369,-0.863 0,0 1.098,-0.555 1.777,-1.431 z m -5.08,-2.958 c 0,0 1.466,0.527 2.285,1.566 -0.46,0.678 -1.809,1.281 -1.809,1.281 0,0 -1.012,-0.372 -2.287,-1.315 1.234,-0.904 1.811,-1.532 1.811,-1.532 z m 1.984,-3.642 c -0.851,0.911 -2.29,1.433 -2.29,1.433 0,0 -1.111,-1.094 -2.158,-1.695 1.139,-0.526 1.981,-1.683 1.981,-1.683 0,0 1.662,0.708 2.467,1.945 z m -4.83,-3.756 c -0.364,0.923 -1.896,1.664 -1.896,1.664 0,0 -1.126,-1.249 -2.212,-1.774 1.1,-0.605 1.699,-1.443 1.699,-1.443 0,0 1.786,0.664 2.409,1.553 z m -1.897,3.833 c 0,0 0.892,0.342 1.966,1.308 -0.46,0.436 -1.536,1.215 -1.536,1.215 0,0 -0.983,-0.655 -1.751,-1.589 0,0 0.891,-0.405 1.321,-0.934 z m -15.336,-3.566 c -0.276,-1.448 -0.139,-4.531 0.455,-5.559 0.855,-1.48 4.35,-1.133 4.35,-1.133 l 0.085,-1.647 c -2.507,-2.259 -2.292,-9.23 0.301,-12.453 2.51,-3.12 9.199,-4.067 15.812,-3.364 1.63,0.174 2.57,1.653 1.451,1.826 -4.667,0.72 -6.935,6.141 -9.168,8.426 -1.694,1.733 -2.691,2.238 -4.885,3.566 -0.884,0.534 -0.854,3.471 -0.854,3.471 0,0 2.058,0.356 2.826,-0.864 3.214,-5.102 4.884,-6.78 9.768,-9.213 3.062,-1.525 6.851,-3.053 10.013,-0.995 1.831,0.173 2.361,0.596 3.879,1.169 -0.154,1.791 -1.832,2.702 -1.832,2.702 0,0 3.614,0.877 5.227,2.2 -0.77,2.104 -2.976,3.447 -2.976,3.447 0,0 2.783,0.885 4.55,2.602 -0.768,2.173 -2.741,3.646 -2.741,3.646 0,0 1.623,1.306 2.827,3.133 -1.546,2.259 -3.604,3.298 -3.604,3.298 0,0 1.374,1.117 2.143,3.221 -1.613,1.323 -4.115,1.913 -4.115,1.913 0,0 1.375,1.125 1.887,2.259 -0.768,1.299 -3.643,0.652 -3.594,1.212 -7.89,6 -18.6,-5.475 -21.518,-9.904 -0.885,-1.345 -2.996,-1.047 -2.996,-1.047 l -10e-4,1.48 c 6.166,2.173 6.252,8.085 8.053,9.905 1.574,1.59 4.03,3.621 6.089,5.132 0.787,0.579 0.034,1.42 -0.928,1.498 -6.391,0.52 -12.056,1.626 -14.356,-0.211 -8.32,-6.64 -0.675,-12.132 -2.546,-18.237 0,0 -3.254,0.347 -3.602,-1.479 z m 22.325,-2.371 c -0.72,-1.136 -2.389,-1.713 -2.389,-1.713 0,0 -0.987,0.971 -2.309,1.713 1.322,0.742 2.309,1.712 2.309,1.712 0,0 1.669,-0.577 2.389,-1.712 z m 1.476,-6.709 c 0,0 2.179,-0.47 2.7,-1.18 -0.689,-0.978 -2.244,-1.822 -2.244,-1.822 0,0 -0.775,0.842 -1.977,1.309 1.134,1.029 1.521,1.693 1.521,1.693" />
      <path
         inkscape:connector-curvature="0"
         id="path11511"
         style="fill:#151f50;fill-opacity:1;fill-rule:evenodd;stroke:none"
         d="m 574.126,635.163 c 0.14,0.567 0.21,1.281 -0.192,1.968 -2.238,0 -3.578,0.663 -5.718,0 -0.614,-0.19 -0.312,-2.11 0.65,-2.11 1.836,0 3.424,0.018 5.26,0.142 z m 20.877,-5.182 c -0.789,1.14 -1.617,2.037 -1.617,2.037 -0.206,-1.367 -0.496,-2.268 -0.755,-2.627 0,0 1.118,-0.139 2.372,0.59 z m -2.412,-3.921 c -0.92,-0.271 -1.527,-0.137 -2.38,-0.011 0.662,0.516 1.003,0.786 1.38,1.347 0,0 0.519,-0.451 1,-1.336 z m 3.632,8.951 c -1.076,-1.091 -2.402,-1.335 -2.402,-1.335 0.194,1.153 0.572,1.908 1.012,2.68 0,0 0.918,-0.492 1.39,-1.345 z m -8.989,2.886 c 0,0 1.663,1.027 2.361,2.522 -0.737,1.613 -2.007,2.281 -2.007,2.281 0,0 1.249,0.679 2.101,1.416 -0.158,0.705 -1.261,2.494 -1.261,2.494 l 1.264,0.785 c 1.823,-1.369 2.3,-5.579 2.665,-6.336 -0.813,0.032 -1.444,0.984 -2.573,0.696 1.255,-0.568 2.83,-2.59 3.173,-3.025 -0.758,-0.897 -2.265,-0.32 -3.804,-0.993 0.316,-0.824 3.551,-0.183 3.709,-1.112 -1.286,-0.352 -2.028,-2.109 -3.03,-2.526 1.349,-0.352 2.249,1.542 2.714,0.934 -1.101,-2.215 -0.681,-5.416 -3.292,-6.729 l -1.246,1.152 c 0,0 1.176,0.703 1.808,2.071 -1.011,0.952 -2.786,1.362 -2.786,1.362 0,0 1.796,0.755 2.533,2.368 -0.698,1.494 -2.329,2.64 -2.329,2.64 z m 0.434,-2.631 c -0.559,-0.709 -2.037,-1.328 -2.037,-1.328 0,0 -0.654,0.913 -1.542,1.343 0.9,0.495 1.333,1.222 1.333,1.222 0,0 1.628,-0.516 2.246,-1.237 z m -5.969,-14.037 c -1.24,0.731 -4.125,3.413 -4.841,5.116 -0.505,1.203 -3.157,3.358 -3.856,2.35 -0.839,-1.21 2.033,-6.898 8.697,-7.466 z m -5.21,0.787 c -3.137,-0.503 -7.894,4.184 -5.031,7.743 -0.033,-2.973 2.084,-6.55 5.031,-7.743 z m 10.219,5.81 c 0.498,-0.252 1.406,-0.809 1.839,-1.319 -0.236,-0.332 -1.355,-0.558 -1.355,-0.558 -0.793,0.14 -1.938,0.707 -1.938,0.707 0,0 0.899,0.453 1.454,1.17 z m -4.151,1.853 c 0,0 1.199,-0.431 1.87,-1.281 -0.377,-0.555 -1.481,-1.048 -1.481,-1.048 0,0 -0.828,0.304 -1.871,1.076 1.009,0.739 1.482,1.253 1.482,1.253 z m 1.702,3.322 c -0.643,-0.793 -1.788,-1.303 -1.788,-1.303 0,0 -0.968,0.829 -1.857,1.259 0.9,0.495 1.522,1.488 1.522,1.488 0,0 1.397,-0.481 2.123,-1.444 z m -3.751,2.358 c -0.298,-0.755 -1.551,-1.361 -1.551,-1.361 0,0 -0.922,1.021 -1.81,1.451 0.9,0.495 1.39,1.181 1.39,1.181 0,0 1.461,-0.544 1.971,-1.271 z m -1.552,-3.177 c 0,0 0.729,-0.28 1.609,-1.071 -0.377,-0.357 -1.257,-0.994 -1.257,-0.994 0,0 -0.804,0.536 -1.433,1.3 0,0 0.729,0.332 1.081,0.765 z m 7.035,11.477 c 0,0 1.734,0.341 2.097,0.964 -0.685,0.806 -1.98,1.519 -1.98,1.519 0,0 -0.558,-0.752 -1.498,-1.237 1.01,-0.739 1.381,-1.246 1.381,-1.246 z m 2.026,-3.363 c -0.558,0.708 -2.037,1.327 -2.037,1.327 0,0 -0.653,-0.913 -1.541,-1.343 0.899,-0.495 1.333,-1.221 1.333,-1.221 0,0 1.628,0.515 2.245,1.237 z m 7.335,4.515 c -0.788,-1.14 -1.617,-2.036 -1.617,-2.036 -0.205,1.367 -0.495,2.268 -0.754,2.626 0,0 1.118,0.139 2.371,-0.59 z m -2.201,3.483 c -0.921,0.271 -1.528,0.137 -2.381,0.011 0.662,-0.516 1.004,-0.786 1.38,-1.348 0,0 0.519,0.452 1.001,1.337 z m 3.075,-8.155 c -1.075,1.09 -2.338,1.28 -2.338,1.28 0,-1.09 0.509,-1.854 0.949,-2.625 0,0 0.918,0.491 1.389,1.345 z m -16.7,12.377 c -1.487,-0.878 -2.166,-2.97 -3.024,-5.013 -0.607,-1.443 -2.757,-3.948 -4.129,-3.451 -1.854,0.671 -0.844,8.889 7.153,8.464 z m -1.683,1.347 c -2.593,0 -5.051,0.643 -6.385,-3.627 0.7,1.495 2.594,3.273 6.385,3.627 z m 9.15,-6.251 c 0.498,0.252 1.406,0.809 1.838,1.319 -0.236,0.332 -1.354,0.558 -1.354,0.558 -0.793,-0.14 -1.938,-0.707 -1.938,-0.707 0,0 0.898,-0.454 1.454,-1.17 z m -4.156,-2.421 c 0,0 1.199,0.432 1.869,1.282 -0.377,0.555 -1.48,1.048 -1.48,1.048 0,0 -0.828,-0.305 -1.872,-1.076 1.01,-0.74 1.483,-1.254 1.483,-1.254 z m 1.622,-2.98 c -0.696,0.746 -1.873,1.173 -1.873,1.173 0,0 -0.909,-0.895 -1.766,-1.387 0.933,-0.43 1.621,-1.377 1.621,-1.377 0,0 1.36,0.58 2.018,1.591 z m -3.951,-3.072 c -0.298,0.754 -1.551,1.361 -1.551,1.361 0,0 -0.922,-1.022 -1.81,-1.452 0.9,-0.494 1.39,-1.18 1.39,-1.18 0,0 1.461,0.543 1.971,1.271 z m -1.552,3.135 c 0,0 0.729,0.28 1.609,1.071 -0.377,0.357 -1.257,0.994 -1.257,0.994 0,0 -0.804,-0.536 -1.433,-1.3 0,0 0.729,-0.332 1.081,-0.765 z m -12.548,-2.917 c -0.225,-1.185 -0.113,-3.707 0.373,-4.548 0.699,-1.211 3.558,-0.927 3.558,-0.927 l 0.071,-1.348 c -2.052,-1.849 -1.876,-7.552 0.245,-10.188 2.054,-2.553 7.527,-3.328 12.937,-2.753 1.334,0.142 2.104,1.353 1.188,1.494 -3.819,0.589 -5.675,5.025 -7.502,6.894 -1.386,1.418 -2.201,1.831 -3.996,2.917 -0.724,0.438 -0.699,2.841 -0.699,2.841 0,0 1.684,0.29 2.312,-0.707 2.63,-4.174 3.996,-5.548 7.992,-7.538 2.505,-1.248 5.605,-2.498 8.192,-0.814 1.499,0.141 1.932,0.487 3.174,0.956 -0.125,1.465 -1.498,2.211 -1.498,2.211 0,0 2.956,0.717 4.276,1.8 -0.63,1.721 -2.435,2.821 -2.435,2.821 0,0 2.277,0.723 3.723,2.128 -0.628,1.778 -2.243,2.983 -2.243,2.983 0,0 1.328,1.069 2.313,2.563 -1.265,1.849 -2.948,2.699 -2.948,2.699 0,0 1.124,0.914 1.753,2.635 -1.319,1.082 -3.367,1.565 -3.367,1.565 0,0 1.125,0.921 1.544,1.849 -0.629,1.062 -2.981,0.533 -2.941,0.991 -6.455,4.909 -15.218,-4.479 -17.605,-8.103 -0.725,-1.1 -2.452,-0.857 -2.452,-0.857 l 0,1.211 c 5.045,1.778 5.115,6.615 6.589,8.104 1.287,1.301 3.297,2.963 4.982,4.2 0.644,0.473 0.028,1.161 -0.76,1.225 -5.229,0.425 -9.863,1.33 -11.746,-0.173 -6.807,-5.433 -0.552,-9.926 -2.083,-14.921 0,0 -2.662,0.284 -2.947,-1.21 z m 18.266,-1.94 c -0.589,-0.929 -1.955,-1.401 -1.955,-1.401 0,0 -0.807,0.794 -1.889,1.401 1.082,0.607 1.889,1.401 1.889,1.401 0,0 1.366,-0.472 1.955,-1.401 z m 1.207,-5.489 c 0,0 1.784,-0.385 2.209,-0.966 -0.563,-0.8 -1.836,-1.491 -1.836,-1.491 0,0 -0.633,0.69 -1.617,1.072 0.928,0.842 1.244,1.385 1.244,1.385" />
      <path
         inkscape:connector-curvature="0"
         id="path11515"
         style="fill:#151f50;fill-opacity:1;fill-rule:evenodd;stroke:none"
         d="m 574.126,726.164 c 0.14,0.567 0.21,1.281 -0.192,1.968 -2.238,0 -3.578,0.663 -5.718,0 -0.614,-0.19 -0.312,-2.11 0.65,-2.11 1.836,0 3.424,0.018 5.26,0.142 z m 20.877,-5.182 c -0.789,1.14 -1.617,2.037 -1.617,2.037 -0.206,-1.367 -0.496,-2.268 -0.755,-2.627 0,0 1.118,-0.139 2.372,0.59 z m -2.412,-3.921 c -0.92,-0.271 -1.527,-0.137 -2.38,-0.011 0.662,0.516 1.003,0.786 1.38,1.347 0,0 0.519,-0.451 1,-1.336 z m 3.632,8.951 c -1.076,-1.091 -2.402,-1.335 -2.402,-1.335 0.194,1.153 0.572,1.908 1.012,2.68 0,0 0.918,-0.492 1.39,-1.345 z m -8.989,2.886 c 0,0 1.663,1.027 2.361,2.522 -0.737,1.613 -2.007,2.281 -2.007,2.281 0,0 1.249,0.679 2.101,1.416 -0.158,0.705 -1.261,2.494 -1.261,2.494 l 1.264,0.785 c 1.823,-1.369 2.3,-5.579 2.665,-6.336 -0.813,0.032 -1.444,0.984 -2.573,0.696 1.255,-0.568 2.83,-2.59 3.173,-3.025 -0.758,-0.897 -2.265,-0.32 -3.804,-0.993 0.316,-0.824 3.551,-0.183 3.709,-1.112 -1.286,-0.352 -2.028,-2.109 -3.03,-2.526 1.349,-0.352 2.249,1.542 2.714,0.934 -1.101,-2.215 -0.681,-5.416 -3.292,-6.729 l -1.246,1.152 c 0,0 1.176,0.703 1.808,2.071 -1.011,0.952 -2.786,1.362 -2.786,1.362 0,0 1.796,0.755 2.533,2.368 -0.698,1.494 -2.329,2.64 -2.329,2.64 z m 0.434,-2.631 c -0.559,-0.709 -2.037,-1.328 -2.037,-1.328 0,0 -0.654,0.913 -1.542,1.343 0.9,0.495 1.333,1.222 1.333,1.222 0,0 1.628,-0.516 2.246,-1.237 z m -5.969,-14.037 c -1.24,0.731 -4.125,3.414 -4.841,5.116 -0.505,1.203 -3.157,3.358 -3.856,2.35 -0.839,-1.21 2.033,-6.898 8.697,-7.466 z m -5.21,0.787 c -3.137,-0.503 -7.894,4.183 -5.031,7.743 -0.033,-2.973 2.084,-6.55 5.031,-7.743 z m 10.219,5.81 c 0.498,-0.252 1.406,-0.81 1.839,-1.32 -0.236,-0.331 -1.355,-0.557 -1.355,-0.557 -0.793,0.14 -1.938,0.707 -1.938,0.707 0,0 0.899,0.453 1.454,1.17 z m -4.151,1.853 c 0,0 1.199,-0.431 1.87,-1.281 -0.377,-0.555 -1.481,-1.048 -1.481,-1.048 0,0 -0.828,0.304 -1.871,1.076 1.009,0.739 1.482,1.253 1.482,1.253 z m 1.702,3.322 c -0.643,-0.793 -1.788,-1.303 -1.788,-1.303 0,0 -0.968,0.829 -1.857,1.259 0.9,0.495 1.522,1.488 1.522,1.488 0,0 1.397,-0.481 2.123,-1.444 z m -3.751,2.358 c -0.298,-0.755 -1.551,-1.361 -1.551,-1.361 0,0 -0.922,1.021 -1.81,1.451 0.9,0.495 1.39,1.18 1.39,1.18 0,0 1.461,-0.543 1.971,-1.27 z m -1.552,-3.177 c 0,0 0.729,-0.28 1.609,-1.071 -0.377,-0.357 -1.257,-0.994 -1.257,-0.994 0,0 -0.804,0.536 -1.433,1.3 0,0 0.729,0.332 1.081,0.765 z m 7.035,11.477 c 0,0 1.734,0.341 2.097,0.964 -0.685,0.806 -1.98,1.519 -1.98,1.519 0,0 -0.558,-0.752 -1.498,-1.237 1.01,-0.739 1.381,-1.246 1.381,-1.246 z m 2.026,-3.363 c -0.558,0.708 -2.037,1.327 -2.037,1.327 0,0 -0.653,-0.913 -1.541,-1.343 0.899,-0.495 1.333,-1.221 1.333,-1.221 0,0 1.628,0.515 2.245,1.237 z m 7.335,4.515 c -0.788,-1.14 -1.617,-2.036 -1.617,-2.036 -0.205,1.367 -0.495,2.268 -0.754,2.626 0,0 1.118,0.139 2.371,-0.59 z m -2.201,3.483 c -0.921,0.271 -1.528,0.137 -2.381,0.011 0.662,-0.516 1.004,-0.786 1.38,-1.348 0,0 0.519,0.452 1.001,1.337 z m 3.075,-8.155 c -1.075,1.09 -2.338,1.28 -2.338,1.28 0,-1.09 0.509,-1.854 0.949,-2.625 0,0 0.918,0.491 1.389,1.345 z m -16.7,12.376 c -1.487,-0.877 -2.166,-2.969 -3.024,-5.012 -0.607,-1.443 -2.757,-3.948 -4.129,-3.451 -1.854,0.671 -0.844,8.889 7.153,8.463 z m -1.683,1.348 c -2.593,0 -5.051,0.643 -6.385,-3.627 0.7,1.494 2.594,3.273 6.385,3.627 z m 9.15,-6.251 c 0.498,0.252 1.406,0.809 1.838,1.319 -0.236,0.332 -1.354,0.558 -1.354,0.558 -0.793,-0.14 -1.938,-0.707 -1.938,-0.707 0,0 0.898,-0.453 1.454,-1.17 z m -4.156,-2.421 c 0,0 1.199,0.432 1.869,1.282 -0.377,0.555 -1.48,1.048 -1.48,1.048 0,0 -0.828,-0.305 -1.872,-1.076 1.01,-0.74 1.483,-1.254 1.483,-1.254 z m 1.622,-2.98 c -0.696,0.746 -1.873,1.173 -1.873,1.173 0,0 -0.909,-0.895 -1.766,-1.387 0.933,-0.43 1.621,-1.377 1.621,-1.377 0,0 1.36,0.58 2.018,1.591 z m -3.951,-3.072 c -0.298,0.754 -1.551,1.361 -1.551,1.361 0,0 -0.922,-1.022 -1.81,-1.452 0.9,-0.494 1.39,-1.18 1.39,-1.18 0,0 1.461,0.543 1.971,1.271 z m -1.552,3.135 c 0,0 0.729,0.28 1.609,1.071 -0.377,0.357 -1.257,0.994 -1.257,0.994 0,0 -0.804,-0.536 -1.433,-1.3 0,0 0.729,-0.332 1.081,-0.765 z m -12.548,-2.917 c -0.225,-1.185 -0.113,-3.707 0.373,-4.548 0.699,-1.211 3.558,-0.927 3.558,-0.927 l 0.071,-1.348 c -2.052,-1.849 -1.876,-7.552 0.245,-10.188 2.054,-2.553 7.527,-3.328 12.937,-2.753 1.334,0.142 2.104,1.353 1.188,1.494 -3.819,0.589 -5.675,5.025 -7.502,6.894 -1.386,1.418 -2.201,1.831 -3.996,2.917 -0.724,0.438 -0.699,2.841 -0.699,2.841 0,0 1.684,0.29 2.312,-0.707 2.63,-4.174 3.996,-5.548 7.992,-7.538 2.505,-1.248 5.605,-2.498 8.192,-0.815 1.499,0.142 1.932,0.488 3.174,0.957 -0.125,1.465 -1.498,2.211 -1.498,2.211 0,0 2.956,0.717 4.276,1.8 -0.63,1.721 -2.435,2.82 -2.435,2.82 0,0 2.277,0.724 3.723,2.129 -0.628,1.778 -2.243,2.983 -2.243,2.983 0,0 1.328,1.068 2.313,2.563 -1.265,1.849 -2.948,2.699 -2.948,2.699 0,0 1.124,0.914 1.753,2.635 -1.319,1.082 -3.367,1.565 -3.367,1.565 0,0 1.125,0.921 1.544,1.849 -0.629,1.062 -2.981,0.533 -2.941,0.991 -6.455,4.909 -15.218,-4.479 -17.605,-8.103 -0.725,-1.1 -2.452,-0.857 -2.452,-0.857 l 0,1.211 c 5.045,1.778 5.115,6.615 6.589,8.104 1.287,1.301 3.297,2.963 4.982,4.2 0.644,0.473 0.028,1.161 -0.76,1.225 -5.229,0.425 -9.863,1.33 -11.746,-0.173 -6.807,-5.433 -0.552,-9.926 -2.083,-14.921 0,0 -2.662,0.284 -2.947,-1.21 z m 18.266,-1.94 c -0.589,-0.929 -1.955,-1.401 -1.955,-1.401 0,0 -0.807,0.794 -1.889,1.401 1.082,0.607 1.889,1.401 1.889,1.401 0,0 1.366,-0.472 1.955,-1.401 z m 1.207,-5.489 c 0,0 1.784,-0.384 2.209,-0.966 -0.563,-0.8 -1.836,-1.491 -1.836,-1.491 0,0 -0.633,0.69 -1.617,1.072 0.928,0.842 1.244,1.385 1.244,1.385" />
      <path
         inkscape:connector-curvature="0"
         id="path11519"
         style="fill:#bba762;fill-opacity:1;fill-rule:nonzero;stroke:none"
         d="m 418.601,683.389 c 0,31.143 8.348,55.705 16.874,73.092 l 8.545,-0.054 c 3.188,0 5.151,-0.01 7.005,2.89 4.01,6.269 3.301,10.71 5.362,14.89 1.385,2.808 2.319,3.608 6.329,4.898 -2.512,2.775 -4.53,3.982 -8.052,4.179 -3.147,0.176 -5.245,-0.519 -7.681,-2.546 -1.791,2.382 -4.038,3.35 -6.972,3.003 -3.255,-0.384 -4.654,-2.685 -6.441,-5.469 -0.902,-1.404 -1.611,-3.266 -1.724,-5.85 l -5.97,0 c -4.031,0 -6.158,0 -7.576,-2.738 -13.726,-26.493 -21.215,-49.568 -21.215,-86.295 0,-36.727 7.489,-59.802 21.215,-86.295 1.418,-2.738 3.545,-2.738 7.576,-2.738 l 5.97,0 c 0.113,-2.584 0.822,-4.446 1.724,-5.85 1.787,-2.784 3.186,-5.085 6.441,-5.469 2.934,-0.347 5.181,0.621 6.972,3.003 2.436,-2.027 4.534,-2.722 7.681,-2.546 3.522,0.197 5.54,1.404 8.052,4.179 -4.01,1.29 -4.944,2.09 -6.329,4.898 -2.061,4.18 -1.352,8.621 -5.362,14.89 -1.854,2.899 -3.817,2.89 -7.005,2.89 l -8.545,-0.054 c -8.526,17.387 -16.874,41.949 -16.874,73.092" />
      <path
         inkscape:connector-curvature="0"
         id="path11523"
         style="fill:#151f50;fill-opacity:1;fill-rule:evenodd;stroke:none"
         d="m 416.963,754.73 c -0.464,-0.002 -0.597,0.199 -0.7,0.854 l -0.232,-10e-4 0.037,-8.536 c 0.911,-0.012 1.807,-0.076 2.718,-0.156 l -10e-4,0.32 c -1.509,0.295 -1.793,0.899 -1.8,2.31 l -0.015,3.562 4.176,0.019 0.01,-2.386 c 0.003,-0.605 -0.046,-0.941 -0.956,-1.063 l 0.002,-0.336 c 0.48,0.053 0.927,0.105 1.441,0.107 0.48,0.002 0.928,-0.046 1.409,-0.094 l -0.002,0.336 c -0.912,0.113 -0.963,0.449 -0.965,1.054 l -0.011,2.386 3.547,0.016 0.016,-3.848 c 0.003,-0.739 -0.193,-1.312 -1.518,-1.519 l 10e-4,-0.336 c 0.812,0.071 1.64,0.108 2.452,0.112 l -0.034,8.098 -0.232,-10e-4 c -0.097,-0.655 -0.229,-0.858 -0.693,-0.86 l -8.65,-0.038 z m -7.305,-22.406 c -0.465,0 -0.597,0.201 -0.697,0.857 l -0.232,0 c 0,-0.353 0.1,-1.042 0.1,-1.681 0,-0.639 -0.1,-1.327 -0.1,-1.68 l 0.232,0 c 0.1,0.655 0.232,0.857 0.697,0.857 l 8.85,0 0,-0.437 c 0,-2.269 -0.315,-3.765 -2.436,-3.765 -1.558,0 -2.42,1.21 -2.42,2.79 l 0,1.008 c 0,0.152 -0.05,0.236 -0.133,0.236 -0.082,0 -0.116,-0.051 -0.165,-0.101 -0.282,-0.303 -0.431,-1.21 -0.431,-1.613 0,-2.269 1.293,-3.866 3.314,-3.866 1.84,0 3.1,1.093 3.1,3.311 l 0,4.941 -0.232,0 c -0.099,-0.656 -0.232,-0.857 -0.696,-0.857 l -8.751,0 z m -3.846,-10.213 c 0,-0.353 0.099,-1.042 0.099,-1.68 0,-0.639 -0.099,-1.328 -0.099,-1.681 l 0.232,0 c 0.099,0.656 0.232,0.857 0.696,0.857 l 8.851,0 c 0.464,0 0.597,-0.201 0.696,-0.857 l 0.232,0 c 0,0.353 -0.099,1.042 -0.099,1.681 0,0.638 0.099,1.327 0.099,1.68 l -0.232,0 c -0.099,-0.655 -0.232,-0.857 -0.696,-0.857 l -8.851,0 c -0.464,0 -0.597,0.202 -0.696,0.857 l -0.232,0 z m 0.193,-15.687 c -0.605,0.947 -1.059,2.076 -1.049,3.236 0.021,2.369 2.373,4.18 4.925,4.157 2.42,-0.021 3.979,-1.715 3.96,-3.95 -0.01,-1.176 -0.486,-2.6 -1.997,-2.923 l -0.002,-0.235 c 0.829,0.076 1.658,0.136 2.487,0.146 0.371,0.769 0.528,1.692 0.536,2.549 0.02,2.353 -1.491,5.928 -5.517,5.964 -3.878,0.034 -5.495,-2.959 -5.514,-5.144 -0.012,-1.428 0.39,-2.826 1.244,-3.724 l 0.927,-0.076 z m -2.113,-4.371 c -0.464,0 -0.597,0.201 -0.696,0.857 l -0.232,0 -10e-4,-8.536 c 0.912,-0.016 1.807,-0.084 2.718,-0.168 l 0,0.32 c -1.507,0.302 -1.789,0.907 -1.789,2.318 l 0,3.562 4.176,0 0,-2.386 c 0,-0.605 -0.05,-0.941 -0.962,-1.058 l 0,-0.336 c 0.481,0.05 0.929,0.101 1.442,0.101 0.48,0 0.928,-0.051 1.409,-0.101 l 0,0.336 c -0.912,0.117 -0.961,0.453 -0.961,1.058 l 0,2.386 3.546,0 0,-3.848 c 0,-0.739 -0.199,-1.31 -1.525,-1.512 l 0,-0.336 c 0.812,0.068 1.641,0.101 2.453,0.101 l 0,8.099 -0.232,0 c -0.1,-0.656 -0.232,-0.857 -0.696,-0.857 l -8.65,0 z m -0.616,-17.23 c -0.464,0 -0.596,0.202 -0.696,0.857 l -0.232,0 c 0,-0.353 0.099,-1.041 0.099,-1.68 0,-0.639 -0.099,-1.328 -0.099,-1.681 l 0.232,0 c 0.1,0.656 0.232,0.857 0.696,0.857 l 8.851,0 0,-0.436 c 0,-2.269 -0.315,-3.765 -2.437,-3.765 -1.557,0 -2.419,1.21 -2.419,2.79 l 0,1.008 c 0,0.151 -0.05,0.235 -0.133,0.235 -0.083,0 -0.116,-0.05 -0.165,-0.1 -0.283,-0.303 -0.432,-1.21 -0.432,-1.614 0,-2.268 1.293,-3.865 3.315,-3.865 1.84,0 3.1,1.092 3.1,3.311 l 0,4.94 -0.232,0 c -0.1,-0.655 -0.232,-0.857 -0.696,-0.857 l -8.752,0 z m 0.124,-11.646 c -0.464,0 -0.597,0.202 -0.696,0.857 l -0.232,0 c 0,-0.353 0.099,-1.042 0.099,-1.68 0,-0.639 -0.099,-1.328 -0.099,-1.681 l 0.232,0 c 0.099,0.656 0.232,0.857 0.696,0.857 l 8.751,0 0,-0.907 c 0,-1.412 -0.232,-2.84 -1.806,-2.84 -1.459,0 -2.172,1.227 -2.172,2.974 0,0.135 -0.066,0.32 -0.165,0.32 -0.067,0 -0.216,-0.135 -0.481,-0.337 l -2.867,-2.167 c -1.873,-1.362 -2.138,-1.53 -2.188,-1.715 0,-0.419 0.099,-0.857 0.099,-1.294 0,-0.285 -0.099,-0.571 -0.099,-0.873 l 0.232,0 c 0.049,0.487 0.464,0.907 1.094,1.411 l 3.945,3.092 c 0.132,-1.613 1.127,-3.058 2.817,-3.058 1.376,0 2.519,0.79 2.519,3.025 l 0,4.873 -0.232,0 c -0.099,-0.655 -0.232,-0.857 -0.696,-0.857 l -8.751,0 z m 6.09,-12.719 c 3.027,0.377 4.252,-1.739 4.399,-2.957 0.257,-2.118 -1.442,-4.362 -4.321,-4.72 -2.616,-0.326 -4.107,1.233 -4.321,3.001 -0.311,2.568 1.923,4.387 4.243,4.676 z m -0.597,1.484 c -2.978,-0.371 -5.219,-2.547 -4.813,-5.899 0.4,-3.303 3.437,-5.075 6.266,-4.723 2.402,0.299 5.169,2.134 4.721,5.837 -0.313,2.585 -2.949,5.186 -6.174,4.785 z m 0.855,-13.898 c -0.862,-0.067 -1.707,-0.101 -2.569,-0.101 -0.58,-0.958 -0.779,-2.016 -0.779,-3.058 0,-3.126 1.558,-4.538 3.398,-4.538 2.205,0 2.619,1.597 3.033,3.697 0.415,2.068 0.597,2.723 1.79,2.723 1.044,0 1.89,-0.924 1.89,-2.739 0,-1.177 -0.481,-2.555 -1.923,-2.79 l 0,-0.336 c 0.762,0.05 1.542,0.084 2.304,0.067 0.365,0.605 0.547,2.084 0.547,2.79 0,2.705 -1.425,4.453 -3.066,4.453 -2.023,0 -2.536,-1.563 -3.1,-4.453 -0.232,-1.16 -0.497,-1.966 -1.823,-1.966 -1.475,0 -2.121,1.394 -2.121,2.621 0,1.647 0.828,2.891 2.419,3.294 l 0,0.336 z m -0.21,-11.959 c -0.465,0 -0.597,0.201 -0.696,0.857 l -0.233,0 c 0,-0.353 0.1,-1.042 0.1,-1.68 0,-0.639 -0.1,-1.328 -0.1,-1.681 l 0.233,0 c 0.099,0.656 0.231,0.857 0.696,0.857 l 8.849,0 0,-0.437 c -10e-4,-2.268 -0.315,-3.763 -2.437,-3.763 -1.557,0 -2.419,1.209 -2.419,2.789 l 0,1.008 c 0,0.151 -0.049,0.235 -0.132,0.235 -0.083,0 -0.117,-0.05 -0.166,-0.101 -0.282,-0.302 -0.431,-1.209 -0.431,-1.613 0,-2.268 1.293,-3.864 3.314,-3.864 1.84,0 3.099,1.092 3.099,3.31 l 0,4.94 -0.232,0 c -0.1,-0.656 -0.232,-0.857 -0.696,-0.857 l -8.749,0 z m 2.445,-10.223 c 0,-0.353 0.099,-1.042 0.099,-1.68 0,-0.639 -0.099,-1.328 -0.099,-1.681 l 0.232,0 c 0.099,0.656 0.232,0.857 0.696,0.857 l 8.849,0 c 0.463,0 0.596,-0.201 0.695,-0.857 l 0.232,0 c 0,0.353 -0.099,1.042 -0.099,1.681 0,0.638 0.099,1.327 0.099,1.68 l -0.232,0 c -0.099,-0.656 -0.232,-0.857 -0.695,-0.857 l -8.849,0 c -0.464,0 -0.597,0.201 -0.696,0.857 l -0.232,0 z m 6.146,-14.918 c -0.593,0.955 -1.032,2.09 -1.008,3.25 0.052,2.368 2.427,4.147 4.979,4.091 2.418,-0.054 3.956,-1.768 3.908,-4.002 -0.025,-1.176 -0.52,-2.594 -2.035,-2.897 l -0.005,-0.235 c 0.83,0.066 1.66,0.115 2.489,0.113 0.381,0.765 0.55,1.686 0.569,2.542 0.05,2.352 -1.414,5.948 -5.44,6.037 -3.877,0.085 -5.532,-2.886 -5.579,-5.07 -0.031,-1.428 0.353,-2.832 1.196,-3.741 l 0.926,-0.088 z m 3.819,-3.497 c -0.464,-0.008 -0.6,0.191 -0.711,0.845 l -0.232,-0.005 0.147,-8.535 c 0.912,-10e-4 1.808,-0.052 2.721,-0.12 l -0.005,0.319 c -1.513,0.276 -1.806,0.876 -1.83,2.287 l -0.062,3.562 4.176,0.074 0.042,-2.386 c 0.01,-0.604 -0.034,-0.941 -0.944,-1.075 l 0.006,-0.336 c 0.48,0.059 0.927,0.117 1.441,0.126 0.48,0.009 0.929,-0.034 1.41,-0.076 l -0.006,0.336 c -0.913,0.102 -0.969,0.437 -0.979,1.042 l -0.041,2.386 3.546,0.062 0.066,-3.847 c 0.013,-0.74 -0.176,-1.314 -1.498,-1.54 l 0.005,-0.336 c 0.811,0.082 1.639,0.13 2.451,0.145 l -0.139,8.098 -0.232,-0.004 c -0.088,-0.657 -0.217,-0.861 -0.681,-0.869 l -8.651,-0.153 z m 0.634,158.865 c -0.464,0 -0.596,0.202 -0.696,0.857 l -0.232,0 c 0,-0.353 0.1,-1.042 0.1,-1.68 0,-0.639 -0.1,-1.328 -0.1,-1.681 l 0.232,0 c 0.1,0.656 0.232,0.857 0.696,0.857 l 8.751,0 0,-0.907 c 0,-1.412 -0.232,-2.84 -1.806,-2.84 -1.458,0 -2.171,1.227 -2.171,2.974 0,0.135 -0.066,0.32 -0.166,0.32 -0.066,0 -0.215,-0.135 -0.481,-0.337 l -2.867,-2.167 c -1.873,-1.362 -2.138,-1.53 -2.188,-1.715 0,-0.42 0.1,-0.857 0.1,-1.293 0,-0.286 -0.1,-0.572 -0.1,-0.874 l 0.232,0 c 0.05,0.487 0.464,0.907 1.094,1.411 l 3.944,3.092 c 0.133,-1.613 1.128,-3.058 2.819,-3.058 1.375,0 2.519,0.79 2.519,3.025 l 0,4.873 -0.232,0 c -0.1,-0.655 -0.232,-0.857 -0.697,-0.857 l -8.751,0 z m -7.502,-22.148 c -0.865,-0.022 -1.71,-0.01 -2.571,0.035 -0.629,-0.925 -0.882,-1.972 -0.936,-3.013 -0.161,-3.121 1.322,-4.613 3.159,-4.711 2.201,-0.117 2.697,1.455 3.22,3.531 0.52,2.042 0.736,2.687 1.928,2.624 1.043,-0.056 1.839,-1.023 1.745,-2.836 -0.06,-1.175 -0.612,-2.525 -2.064,-2.684 l -0.017,-0.335 c 0.764,0.01 1.544,0.002 2.304,-0.056 0.395,0.585 0.654,2.052 0.69,2.757 0.14,2.702 -1.193,4.523 -2.832,4.61 -2.019,0.107 -2.613,-1.426 -3.325,-4.283 -0.292,-1.145 -0.598,-1.937 -1.922,-1.866 -1.473,0.078 -2.047,1.505 -1.983,2.73 0.085,1.645 0.977,2.843 2.586,3.161 l 0.018,0.336" />
      <path
         inkscape:connector-curvature="0"
         id="path11527"
         style="fill:#151f50;fill-opacity:1;fill-rule:evenodd;stroke:none"
         d="m 460.605,779.673 c -1.373,-0.401 -2.875,-1.265 -4.07,-2.929 -1.655,-2.312 -2.233,-4.855 -2.794,-7.284 -0.381,-1.634 -0.742,-3.491 -1.44,-5.198 -0.878,-2.138 -2.296,-5.312 -4.087,-6.122 -0.432,-0.189 -1.371,-0.374 -1.515,-0.371 l -1.68,0 c -0.089,0.295 -0.299,1.726 -0.299,2.185 0,3.531 1.899,6.799 1.899,9.805 0,0.146 -0.014,0.761 -0.071,1.104 -0.05,0.299 -0.171,0.598 -0.286,0.868 -0.173,0.401 -1.053,1.733 -1.456,1.733 -0.144,0 -0.439,0.292 -0.583,0.296 l -10.78,0 0,0.368 c -0.004,0.817 1.467,3.626 1.539,3.757 2.123,3.626 3.608,4.625 6.313,4.625 4.115,0 5.058,-3.502 5.641,-3.502 0.468,0 3.101,3.093 6.849,3.093 2.173,0 4.631,-0.466 6.82,-2.428 z m -62.223,-96.284 0,2.975 0.234,7.819 0.46,7.586 c 1.087,11.904 3.165,23.789 6.964,35.708 0.993,3.13 2.172,6.309 3.381,9.453 1.899,4.938 4.078,9.984 6.424,14.821 0.992,2.042 2.267,4 3.073,6.13 0.539,1.444 2.37,3.432 3.723,3.155 0.223,-0.044 0.473,0.036 0.7,0.072 l 18.332,0 c -6.965,-12.642 -12.874,-25.479 -16.752,-38.107 -2.079,-6.769 -3.756,-13.608 -4.907,-20.254 -1.044,-6.025 -1.907,-11.893 -2.288,-17.919 -0.216,-3.443 -0.231,-1.169 -0.338,-11.439 0.107,-10.27 0.122,-7.996 0.338,-11.439 0.381,-6.026 1.244,-11.894 2.288,-17.92 1.151,-6.645 2.828,-13.484 4.907,-20.254 3.878,-12.627 9.787,-25.464 16.752,-38.106 l -18.332,0 c -0.227,0.035 -0.477,0.116 -0.7,0.072 -1.353,-0.277 -3.184,1.711 -3.723,3.155 -0.806,2.13 -2.081,4.087 -3.073,6.13 -2.346,4.836 -4.525,9.882 -6.424,14.821 -1.209,3.144 -2.388,6.323 -3.381,9.452 -3.799,11.92 -5.877,23.804 -6.964,35.709 l -0.46,7.586 -0.234,7.819 0,2.975 z m 45.636,-86.573 0,0.488 c 0.011,0.649 -1.205,4.923 -1.292,5.324 -0.209,0.926 -0.367,1.925 -0.539,2.856 l -0.057,1.369 c 0,0.671 0.151,1.593 0.223,2.147 l -4.651,0 c 1.79,-3.991 4.122,-8.216 6.316,-12.184 z m 16.587,-9.711 c -1.373,0.401 -2.875,1.265 -4.07,2.928 -1.655,2.313 -2.233,4.855 -2.794,7.285 -0.381,1.634 -0.742,3.491 -1.44,5.198 -0.878,2.137 -2.296,5.311 -4.087,6.121 -0.432,0.19 -1.371,0.375 -1.515,0.372 l -1.68,0 c -0.089,-0.296 -0.299,-1.726 -0.299,-2.186 0,-3.531 1.899,-6.799 1.899,-9.804 0,-0.146 -0.014,-0.761 -0.071,-1.104 -0.05,-0.299 -0.171,-0.599 -0.286,-0.869 -0.173,-0.401 -1.053,-1.733 -1.456,-1.733 -0.144,0 -0.439,-0.291 -0.583,-0.296 l -10.78,0 0,-0.367 c -0.004,-0.818 1.467,-3.626 1.539,-3.758 2.123,-3.625 3.608,-4.624 6.313,-4.624 4.115,0 5.058,3.501 5.641,3.501 0.468,0 3.101,-3.093 6.849,-3.093 2.173,0 4.631,0.467 6.82,2.429 z m -16.587,182.857 0,-0.488 c 0.011,-0.649 -1.205,-4.923 -1.292,-5.324 -0.209,-0.927 -0.367,-1.925 -0.539,-2.857 l -0.057,-1.368 c 0,-0.671 0.151,-1.593 0.223,-2.147 l -4.651,0 c 1.79,3.99 4.122,8.216 6.316,12.184 z m -23.937,-86.573 0,7.001 0.234,4.259 c 0.684,10.082 2.345,20.282 4.892,30.225 2.597,10.132 6.358,20.186 11.269,30.268 l 10.28,0 c 0.144,-0.002 1.108,0.189 1.626,0.335 0.382,0.109 1.028,0.366 1.445,0.585 2.043,1.094 3.863,4.662 4.891,7.266 1.123,2.838 1.483,5.714 2.361,8.581 0.496,1.62 1.816,4.475 3.967,5.16 1.389,0.438 2.822,0.949 4.221,1.496 -0.468,0.493 -0.97,0.929 -1.365,1.425 -2.727,3.384 -5.957,4.489 -8.791,4.679 -0.857,0.058 -1.24,0.059 -1.383,0.059 -1.979,0 -4.579,-0.765 -6.44,-2.161 -0.557,1.145 -3.755,2.569 -4.834,2.569 l -2.375,0 c -0.144,0 -0.463,-0.139 -0.629,-0.153 -3.978,-0.423 -7.975,-6.379 -8.614,-11.128 -0.039,-0.052 -0.086,-0.1 -0.086,-0.1 l -7.65,0 c -1.489,10e-4 -4.356,-0.809 -5.292,-2.465 -4.741,-8.338 -8.527,-17.154 -11.686,-25.623 -0.77,-2.079 -1.547,-4.225 -2.209,-6.304 -3.929,-12.372 -6.398,-24.992 -7.426,-37.357 l -0.461,-8.638 -0.222,-9.979 0.222,-9.98 0.461,-8.638 c 1.028,-12.365 3.497,-24.984 7.426,-37.356 0.662,-2.079 1.439,-4.225 2.209,-6.304 3.159,-8.469 6.945,-17.286 11.686,-25.624 0.936,-1.656 3.803,-2.465 5.292,-2.464 l 7.65,0 c 0,0 0.047,-0.048 0.086,-0.1 0.639,-4.749 4.636,-10.705 8.614,-11.128 0.166,-0.015 0.485,-0.153 0.629,-0.153 l 2.375,0 c 1.079,0 4.277,1.423 4.834,2.568 1.861,-1.396 4.461,-2.16 6.44,-2.16 0.143,0 0.526,0 1.383,0.058 2.834,0.19 6.064,1.295 8.791,4.68 0.395,0.496 0.897,0.931 1.365,1.425 -1.399,0.546 -2.832,1.058 -4.221,1.495 -2.151,0.686 -3.471,3.541 -3.967,5.16 -0.878,2.867 -1.238,5.744 -2.361,8.581 -1.028,2.605 -2.848,6.172 -4.891,7.266 -0.417,0.219 -1.063,0.477 -1.445,0.586 -0.518,0.146 -1.482,0.337 -1.626,0.335 l -10.28,0 c -4.911,10.082 -8.672,20.136 -11.269,30.268 -2.547,9.943 -4.208,20.143 -4.892,30.224 l -0.234,4.26 0,7.001" />
    </g>
  </g>
</svg>
